<svg xmlns="http://www.w3.org/2000/svg" width="65" height="45" viewBox="0 0 65 45">
    <defs>
        <linearGradient id="a" x1="1.591%" x2="94.828%" y1="3.237%" y2="97.902%">
            <stop offset="0%" stop-color="#DCF2FF" stop-opacity="0"/>
            <stop offset="81.209%" stop-color="#C7DDFF"/>
            <stop offset="100%" stop-color="#C7DDFF"/>
        </linearGradient>
        <linearGradient id="b" x1="79.884%" x2="0%" y1="50%" y2="50%">
            <stop offset="0%" stop-color="#7117EA" stop-opacity=".165"/>
            <stop offset="100%" stop-color="#EA60DE" stop-opacity=".018"/>
        </linearGradient>
        <linearGradient id="c" x1="61.405%" x2="16.273%" y1="100%" y2="0%">
            <stop offset="0%" stop-color="#4238DA"/>
            <stop offset="100%" stop-color="#24ABFB"/>
        </linearGradient>
    </defs>
    <g fill="none" fill-rule="evenodd">
        <path fill="url(#a)" d="M19.101 0v45.19l41.676-22.595z" transform="translate(0 -1)"/>
        <path fill="url(#b)" d="M0 4.707v35.376l32.625-17.688z" transform="translate(0 -1)"/>
        <path fill="url(#c)" fill-rule="nonzero" d="M63.173 19.932L37.065 4.684c-.592-.347-1.187-.523-1.764-.523-1.551 0-2.632 1.272-2.632 3.091V17.83L10.158 4.684c-.595-.347-1.187-.522-1.763-.522-1.552 0-2.636 1.271-2.636 3.09v30.495c0 1.82 1.084 3.09 2.636 3.09.576 0 1.168-.175 1.763-.522L32.666 27.17v10.578c0 1.82 1.084 3.091 2.633 3.091.577 0 1.169-.176 1.763-.522l26.109-15.249c1.065-.621 1.677-1.56 1.677-2.566.003-1.011-.61-1.947-1.675-2.568zm-1.144 3.13L35.921 38.306c-.317.186-.524.211-.62.211-.312 0-.345-.542-.345-.774v-12.58a1.149 1.149 0 0 0-1.144-1.157c-.196 0-.395.05-.571.155L9.014 38.31c-.317.186-.524.211-.62.211-.312 0-.344-.542-.344-.774V7.253c0-.235.035-.775.345-.775.095 0 .302.028.62.212L33.24 20.837c.355.207.79.207 1.143 0 .356-.206.572-.588.572-1.001V7.253c0-.234.033-.775.345-.775.096 0 .303.028.62.212L62.03 21.938c.368.214.535.444.535.563 0 .12-.167.347-.535.561z" transform="translate(0 -1)"/>
    </g>
</svg>
