<svg xmlns="http://www.w3.org/2000/svg" width="65" height="65" viewBox="0 0 65 65">
    <defs>
        <linearGradient id="a" x1="60.447%" x2="21.295%" y1="69.532%" y2="9.501%">
            <stop offset="0%" stop-color="#006DEC"/>
            <stop offset="100%" stop-color="#00C0DB"/>
        </linearGradient>
        <linearGradient id="b" x1="50%" x2="50%" y1="0%" y2="85.449%">
            <stop offset="0%" stop-color="#E3FEFF"/>
            <stop offset="22.916%" stop-color="#72D3FF" stop-opacity=".824"/>
            <stop offset="100%" stop-color="#0AA2FD" stop-opacity="0"/>
        </linearGradient>
    </defs>
    <g fill="none" fill-rule="evenodd">
        <path fill="url(#a)" fill-rule="nonzero" d="M27.032.035C32.347.404 36.92 2.51 40.75 6.348c3.574 3.513 5.664 7.643 6.268 12.381h1.833c.37 0 .685.127.941.382.231.23.348.531.348.902v34.3a1.3 1.3 0 0 1-.348.902c-.256.25-1.978.377-.939.377H1.304c-.37 0-.672-.128-.906-.382a1.231 1.231 0 0 1-.383-.902v-34.3c0-.369.127-.672.383-.902.234-.255.533-.382.906-.382l2.469.002c.558-4.738 2.611-8.864 6.164-12.381C14.23 2.115 19.371 0 25.361 0c.58 0 1.137.01 1.67.035zM26.79 8.6a9.96 9.96 0 0 0-1.429-.103c-3.667 0-6.768 1.284-9.298 3.85-1.88 1.85-3.074 3.977-3.585 6.38h25.837c-.51-2.406-1.719-4.52-3.62-6.345-2.228-2.22-4.85-3.479-7.87-3.78L26.79 8.6z" transform="translate(7)"/>
        <path stroke="#FFF" d="M7.5 43.627h12.413V56.04H7.5z"/>
        <path stroke="#FFF" d="M19.881 43.627h12.413V56.04H19.881z"/>
        <path stroke="#FFF" d="M32.262 43.627h12.413V56.04H32.262z"/>
        <path stroke="#FFF" d="M44.643 43.627h12.413V56.04H44.643zM7.5 31.143h12.413v12.413H7.5z"/>
        <path stroke="#FFF" d="M19.881 31.143h12.413v12.413H19.881z"/>
        <path stroke="#FFF" d="M32.262 31.143h12.413v12.413H32.262z"/>
        <path stroke="#FFF" d="M44.643 31.143h12.413v12.413H44.643zM7.5 18.659h12.413v12.413H7.5z"/>
        <path stroke="#FFF" d="M19.881 18.659h12.413v12.413H19.881z"/>
        <path stroke="#FFF" d="M32.262 18.659h12.413v12.413H32.262z"/>
        <path stroke="#FFF" d="M44.643 18.659h12.413v12.413H44.643z"/>
        <path fill="url(#b)" d="M45.175 48.492h11.349V65H45.175zM32.794 48.492h11.349V65H32.794zM20.413 48.492h11.349V65H20.413zM8.032 48.492h11.349V65H8.032z"/>
    </g>
</svg>
