<?xml version="1.0" encoding="UTF-8"?>
<svg width="426px" height="328px" viewBox="0 0 426 328" version="1.1" xmlns="http://www.w3.org/2000/svg" xmlns:xlink="http://www.w3.org/1999/xlink">
    <!-- Generator: Sketch 49.3 (51167) - http://www.bohemiancoding.com/sketch -->
    <title>background-tierion-logo</title>
    <desc>Created with Sketch.</desc>
    <defs></defs>
    <g id="Tierion.com-UI" stroke="none" stroke-width="1" fill="none" fill-rule="evenodd" opacity="0.2">
        <g id="UI---Home" transform="translate(-9.000000, -2783.000000)" fill="#FF4081">
            <g id="Section---Challenge" transform="translate(9.000000, 2748.000000)">
                <g id="background-tierion-logo">
                    <path d="M307.822738,245 C244.209479,240.798911 182.795886,240.798911 119.182627,244.984779 C117.111722,214.714616 116.07627,199.579535 114,169.314447 C181.105899,164.890112 245.899466,164.90026 313,169.314447 C310.929095,199.579535 309.893643,214.729838 307.822738,245" id="Fill-8"></path>
                    <path d="M253.803908,362.994975 C221.17406,361.467252 204.82594,361.472277 172.196092,363 C171.322763,336.279927 170.878437,322.922404 170,296.207356 C204.386721,294.594202 221.613279,294.599227 256,296.212382 C255.121563,322.922404 254.687452,336.274902 253.803908,362.994975" id="Fill-9"></path>
                    <path d="M0,51.8486494 C5.54012029,87.1023376 8.29702726,104.731629 13.768751,140 C21.6238313,127.074137 25.6487051,120.652807 33.8931196,107.863985 C156.428164,91.4974247 273.88608,91.7225628 396.352728,108.529611 C402.860922,121.073718 406.038731,127.37269 412.225988,140 C417.697711,104.731629 420.45988,87.1023376 426,51.8486494 C281.977917,29.3837835 144.022083,29.3837835 0,51.8486494" id="Fill-10"></path>
                </g>
            </g>
        </g>
    </g>
</svg>