<svg xmlns="http://www.w3.org/2000/svg" width="1257" height="332" viewBox="0 0 1257 332">
    <g fill="none" fill-rule="evenodd" opacity=".57" transform="translate(1 1)">
        <g opacity=".404">
            <path fill="#E1E7FD" fill-rule="nonzero" d="M212.976 303.26L203 293.22l1.857-1.868 8.12 8.17 17.166-17.275 1.857 1.87z"/>
            <path stroke="#E1E7FD" stroke-width="3" d="M1001.092 98.736l15.642 15.643 32.486-32.486" opacity=".706"/>
            <path stroke="#E1E7FD" stroke-width="2" d="M130 94.4l7.8 7.8L154 86"/>
        </g>
        <circle cx="129" cy="219" r="14" stroke="#E1E7FD" opacity=".404"/>
        <circle cx="129.5" cy="218.5" r="2.5" fill="#E1E7FD" opacity=".4"/>
        <circle cx="14" cy="117" r="14" stroke="#E1E7FD" opacity=".404"/>
        <path fill="#E1E7FD" fill-rule="nonzero" d="M11.1 123.907L5 117.342l1.136-1.222 4.964 5.343 10.497-11.297 1.135 1.223z" opacity=".4"/>
        <path stroke="#E1E7FD" stroke-linecap="square" d="M118.5 209.5l-94-82" opacity=".404"/>
        <g transform="translate(254)">
            <circle cx="14" cy="79" r="14" stroke="#E1E7FD" opacity=".404"/>
            <circle cx="90" cy="14" r="14" stroke="#E1E7FD" opacity=".404"/>
            <circle cx="14.5" cy="78.5" r="2.5" fill="#E1E7FD" opacity=".4"/>
            <path fill="#E1E7FD" fill-rule="nonzero" d="M87.842 19.907L83 14.697l.902-.971 3.94 4.241L96.174 9l.901.97z" opacity=".4"/>
            <path stroke="#E1E7FD" stroke-linecap="square" d="M79.5 24.5l-54 45" opacity=".404"/>
        </g>
        <g transform="translate(1155 20)">
            <path stroke="#E1E7FD" stroke-linecap="square" d="M74.886 74.886L23.5 23.5" opacity=".404"/>
            <circle cx="86" cy="84" r="14" stroke="#E1E7FD" opacity=".404"/>
            <path fill="#E1E7FD" fill-rule="nonzero" d="M83.842 89.907L79 84.697l.902-.971 3.94 4.241L92.174 79l.901.97z" opacity=".4"/>
            <circle cx="14" cy="14" r="14" stroke="#E1E7FD" opacity=".404"/>
            <circle cx="14.5" cy="14.5" r="2.5" fill="#E1E7FD" opacity=".4"/>
        </g>
        <g transform="translate(1020 192)">
            <path fill="#E1E7FD" fill-rule="nonzero" d="M19.15 125.871l-9.15-9.15 1.704-1.704 7.446 7.447 15.745-15.745 1.703 1.704z" opacity=".404"/>
            <circle cx="22.5" cy="115.5" r="22.5" stroke="#E1E7FD" opacity=".404"/>
            <path stroke="#E1E7FD" stroke-linecap="square" d="M33.5 96.5l48-70" opacity=".404"/>
            <circle cx="89" cy="14" r="14" stroke="#E1E7FD" opacity=".404"/>
            <circle cx="89.5" cy="14.5" r="2.5" fill="#E1E7FD" opacity=".4"/>
        </g>
    </g>
</svg>
