<svg xmlns="http://www.w3.org/2000/svg" xmlns:xlink="http://www.w3.org/1999/xlink" width="453" height="230" viewBox="0 0 453 230">
  <defs>
    <path id="a" d="M0 0h455.022v230H0z"/>
    <linearGradient id="c" x1="14.821%" x2="82.935%" y1="29.807%" y2="89.69%">
      <stop offset="0%" stop-color="#0019FF"/>
      <stop offset="100%" stop-color="#FF4081"/>
    </linearGradient>
    <path id="d" d="M37.065 0c20.37 0 36.883 16.528 36.883 36.916 0 20.388-16.513 36.915-36.883 36.915S.18 57.304.18 36.916C.181 16.528 16.695 0 37.065 0z"/>
    <filter id="e" width="110.8%" height="110.8%" x="-5.4%" y="-5.4%" filterUnits="objectBoundingBox">
      <feGaussianBlur in="SourceAlpha" result="shadowBlurInner1" stdDeviation="4"/>
      <feOffset in="shadowBlurInner1" result="shadowOffsetInner1"/>
      <feComposite in="shadowOffsetInner1" in2="SourceAlpha" k2="-1" k3="1" operator="arithmetic" result="shadowInnerInner1"/>
      <feColorMatrix in="shadowInnerInner1" values="0 0 0 0 0.373587376 0 0 0 0 0.171819483 0 0 0 0 0.940821641 0 0 0 1 0"/>
    </filter>
    <path id="f" d="M36.899 11c14.3 0 25.894 11.602 25.894 25.916 0 14.313-11.593 25.916-25.894 25.916-14.301 0-25.894-11.603-25.894-25.916 0-14.314 11.593-25.917 25.894-25.917z"/>
    <filter id="g" width="115.4%" height="115.4%" x="-7.7%" y="-7.7%" filterUnits="objectBoundingBox">
      <feGaussianBlur in="SourceAlpha" result="shadowBlurInner1" stdDeviation="4"/>
      <feOffset in="shadowBlurInner1" result="shadowOffsetInner1"/>
      <feComposite in="shadowOffsetInner1" in2="SourceAlpha" k2="-1" k3="1" operator="arithmetic" result="shadowInnerInner1"/>
      <feColorMatrix in="shadowInnerInner1" values="0 0 0 0 0.373587376 0 0 0 0 0.171819483 0 0 0 0 0.940821641 0 0 0 1 0"/>
    </filter>
    <linearGradient id="h" x1="100.412%" x2="0%" y1="99.428%" y2="0%">
      <stop offset="0%" stop-color="#7600FB"/>
      <stop offset="100%" stop-color="#7C00DC"/>
    </linearGradient>
    <linearGradient id="i" x1="0%" y1="0%" y2="93.553%">
      <stop offset="0%" stop-color="#7800F5"/>
      <stop offset="100%" stop-color="#7800F5" stop-opacity="0"/>
    </linearGradient>
    <linearGradient id="j" x1="50%" x2="50%" y1="0%" y2="100%">
      <stop offset="0%" stop-color="#7144F0"/>
      <stop offset="100%" stop-color="#511BE9"/>
    </linearGradient>
    <linearGradient id="k" x1="3.224%" x2="96.776%" y1="96.776%" y2="-3.224%">
      <stop offset="0%" stop-color="#7800F5"/>
      <stop offset="100%" stop-color="#7800F5" stop-opacity="0"/>
    </linearGradient>
  </defs>
  <g fill="none" fill-rule="evenodd">
    <mask id="b" fill="#fff">
      <use xlink:href="#a"/>
    </mask>
    <g mask="url(#b)">
      <path fill="url(#c)" fill-rule="nonzero" d="M450.483 218.194l1.847 11.39h-.47l-1.472-9.114-.339-2.096-.016.007-1.083-.45-.448-1.084.448-1.084.197-.081-23.932-43.6 25.121 57.503h-.502l-25.944-59.387 14.691 59.387h-.469l-14.96-60.472-.076.032-1.752 15.059.692.287.449 1.084-.449 1.084-.378.157 15.773 42.769h-.492l-15.707-42.592-.229.095-5.128 42.497h-.459l5.142-42.641-.685-.285-.242-.584-30.58 6.297.033.08-.448 1.084-.237.098 17.9 35.95h-.512l-17.813-35.774-.327.136-3.22 35.639h-.46l3.231-35.748-.461-.191-33.782 35.939h-.61l34.053-36.23-.334-.809-54.4-4.953-.302.727-.628.26 6.718 41.005h-.466l-6.689-40.824-.019.008-.852-.354-41.096 41.17h-.651l41.423-41.496-.353-.853.007-.018-53.362-8.775-.261.63-.731.304 4.416 50.208h-.462l-4.405-50.104-.626-.259-41.224 50.363h-.571l41.406-50.586-.418-1.01.029-.069-60.04-12.115-.24.582-.572.238 13.172 62.96h-.467l-13.135-62.782-.08.033-.472-.195-19.92 36.564.191.08.449 1.084-.319.77 27.474 24.446h-.691l-27.055-24.073-.478.198 4.086 23.875h-.466l-4.054-23.694-.028.011-.657-.273-17.954 23.956h-.574l18.096-24.147-.3-.724-44.24 3.629-.404.975-.956.397-1.392 19.87h-.461l1.399-19.954-.398-.165-16.716 20.119h-.598l16.919-20.361-.32-.77-61.18-.452-.348.843-.682.283 2.546 20.457H81.2l-2.527-20.308-.492-.204-12.546 20.512h-.533l12.653-20.69-.122-.05-.042-.101-32.155 20.84h-.782l32.772-21.24-.241-.583.393-.95-29.071-33.085-.766.317-.246-.102-19 55.644h-.485l19.022-55.71-39.678 55.71h-.529l39.869-55.976-.036-.014-.23-.56-21.463 4.847.045.107-.449 1.085-1.082.449-.285-.119-18.788 50.18h-.49l18.854-50.356-.213-.088-6.51 5.937.326.788-.449 1.084-1.082.45-.157-.066-11.232 42.252h-.467l9.473-35.636L.891 229.585H.41l13.782-42.457-.431-.179-.449-1.084.449-1.085 1.082-.448.572.237 28.224-43.231-.079-.033-.448-1.084.448-1.084 1.082-.45.853.355 28.202-28.251-.353-.855.448-1.084 1.082-.45 1.082.45.033.079 43.155-28.274-.236-.572.448-1.085 1.082-.448 1.082.448.179.432 64.08-20.874-.094-.226.448-1.084 1.083-.45 1.082.45.305.738 35.945-2.98.404-.977 1.08-.449 1.083.45.45 1.083-.007.015 16.124 2.622.19-.459 1.083-.449 1.08.45.373.9 52.95 8.608.261-.633 1.08-.449 1.084.45.448 1.083-.17.411 10.632 5.21.465-.194 1.08.45.26.628 41.325 20.246.101-.247 1.084-.45 1.082.45.45 1.084-.31.746 22.634 19.444.964-.4 1.084.449.448 1.084-.383.926 38.712 42.154.806-.334 1.083.449.449 1.084-.449 1.084-.247.103 26.294 53.856.41-.17 1.083.45.448 1.083-.448 1.085-.634.262zm-28.109-56.27l-.963-.4-.449-1.083.354-.855-22.397-22.437 23.402 29.243.369-.153-.316-4.315zm-41.627-44.678l-.449-1.084.094-.225-2.906-.908 4.285 4.293-.092-1.689-.932-.387zM246.742 71.878l56.277 13.017.226-.545 1.08-.45.692.287 7.036-8.942-.356-.86-64.955-2.507zm-.708-12.418l-.922.383-.492 10.301.785.327.377.91 64.965 2.508-64.487-14.974-.226.545zm-2.164 0l-.298-.72-53.503 5.157 52.896 7.24.276-.666.922-.383.492-10.303-.785-.325zm-54.426 4.815l-.276.666-1.082.45-.573-.238-16.24 25.144.093.038.207.501 71.284-19.125-.055-.133-53.358-7.303zM76.366 110.028l-.41.993-1.083.449-.77-.32-18.933 21.44 26.781-22.686-.157-.38-5.428.504zm-22.364 25.854l-1.061.44-4.783 34.828.075.031 34.044-60.855-.077-.031-28.054 23.766.305.737-.449 1.084zm24.713 70.346l.307.127L98.43 156.89l-.355-.147-.18-.434-48.72 15.968.097.233-.393.951 29.071 33.085.766-.318zm62.97.922l1.064-.442 8.998-64.342-.502-.209-71.324 64.82.234.565 61.18.451.35-.843zm2.164 0l.044.106 65.967-41.406-.226-.547.136-.33-56.38-23.218-.139.336-1.064.442-9 64.342.662.275zm66.233-42.931l.872-.362.513-38.542-.834-.346-.197-.477-56.81 16.336.073.18-.136.329 56.38 23.218.14-.336zm2.165 0l.086.208 54.393-28.938-.19-.459.026-.063-53.521-10.585-.243.587-.872.362-.513 38.542.834.346zm61.802 12.245l.576.238 34.145-51.517-.083-.035-.21-.509-38.943 10.238.063.151-.45 1.084-.662.275 5.564 40.075zm113.133 14.6l-3.874-44.35-.981-.408-.28-.675-23.704 3.126-.434 1.055-.032.014 29.038 41.349.267-.111zm32.95-6.69l.748-.31 1.751-15.057-.692-.288-.448-1.084.202-.49-37.108-20.996 35.548 38.226zm-109.017-59.86l44.54 23.343.088-.213.52-.216-10.49-41.1-.144.06-1.083-.448-.084-.204-33.354 17.867.19.463-.183.447zm35.32-18.46l-.243.1 10.49 41.1.144-.06 1.083.45.278.675 23.703-3.125.36-.871-35.814-38.269zm40.017 85.313l.03-.012-29.038-41.35-.618.256-.617-.256-24.923 36.124.055.023.41.99 54.4 4.953.3-.728zm-56.194-5.664l.618.256 24.922-36.124-.055-.023-.448-1.084.184-.447-44.539-23.343-.087.212-.436.18 19.614 60.467.227-.094zm14.032-80.385l-.19-.462.16-.39-38.74-18.218-.112.27-.66.273 5.036 35.747 1.069.444.084.204 33.353-17.868zm-98.66-33.225l-.225.546-.95.395-1.702 25.643.76.315.223.541 59.108-13.982-.048-.117.044-.108-57.21-13.233zm-2.389.546l-.207-.501-71.284 19.125.043.106 69.27 8.312.283-.689.953-.395L244 72.954l-.759-.315zm-101.744 4.394l-1.082.45-.723-.3-25.299 30.833.155.374 54.29-16.764-.085-.207.185-.447-27.348-14.164-.093.225zM84.615 109.39l-.356.86-1.082.45-.493-.204L48.68 171.28l63.413-61.429-.246-.593-27.231.13zm182.37 24.556l.014-.006-23.912-32.603-.658.273-1.059-.44-28.41 22.023.286.692-.026.064 53.521 10.584.244-.587zm41.702-10.964l.662-.275-5.038-35.746-1.066-.443-.225-.542-59.108 13.983.049.117-.11.263 64.671 23.04.165-.397zm-67.503-22.214l-.263-.641-69.27-8.312-.12.29 39.148 30.677 1.036-.43 1.06.44 28.41-22.024zM210.468 123.2L171.32 92.523l-1.036.43-.28-.117-17.142 46.925.39.162.197.477 56.811-16.335-.074-.18.283-.685zm-96.107-13.094l-1.082.45-.204-.086-13.297 43.914.307.127 68.99-62.31-.06-.15-54.291 16.765.085.206-.448 1.084zm36.726 29.817l1.082-.45.28.117 17.143-46.924-.237-.099-68.99 62.31.077.19 50.265-13.894-.069-.166.449-1.084zm-53.013 14.652l1.083-.45.204.086 13.297-43.913-.256-.107-63.474 61.49.075.18 48.72-15.969-.097-.233.448-1.084zm169.991-21.078l1.083.449.21.508 38.942-10.237-.062-.151.108-.263-64.67-23.039-.164.397-.016.007 23.911 32.602.658-.273zM79.64 206.61l71.324-64.818-.08-.193-50.264 13.892.068.167-.448 1.084-1.082.45-.307-.128-19.407 49.465.196.081zm4.97-97.681l27.231-.131.357-.862 1.082-.448.722.3 25.3-30.835-.032-.074-54.77 31.784.11.266zm57.152-32.534l27.347 14.164.093-.225 1.082-.449.573.238 16.241-25.144-.093-.039-.214-.518-44.901 11.39.056.136-.184.447zm172.292-1.024l-.896.373-.692-.287-7.036 8.943.428 1.033-.162.39 38.736 18.214-30.378-28.666zm30.679 28.322l.897-.372 1.083.45.448 1.084-.093.225 28.828 9.004-3.27-3.276-57.719-35.26 29.826 28.145zm2.171 1.783l-.116.28 35.816 38.267.5-.207-1.295-23.808-5.265-5.274-29.64-9.258zm35.232 12.09l.122 2.241 11.072 11.092-10.8-13.496-.394.163zm.16 2.928l1.263 23.256.932.387.449 1.084-.203.49 37.133 21.01.043-.105-25.962-32.441-13.656-13.68zm37.142 65.16l-.033-.08.374-.905-35.568-38.247-.45.187 3.874 44.35.982.407.24.583 30.581-6.296zm-90.52 1.127l.26-.63.434-.18L310 125.503l-.23.095-.596-.248-34.146 51.518.086.036.449 1.084-.008.018 53.363 8.775zm-56.211-9.295l.241-.582.663-.275-5.565-40.075-1.06-.44-.086-.209-54.394 28.939.19.458-.029.069 60.04 12.115zm-62.433-11.02l-.19-.08-.045-.106-65.967 41.405.084.203 44.242-3.63.403-.974 1.082-.45.472.196 19.92-36.564zm-164.019 6.15l-.044-.107.448-1.084 1.062-.44 4.783-34.828-.182-.075-27.812 40.8.052.022.231.559 21.462-4.847zM16.021 184.48l6.253-5.702-.326-.788.449-1.084 1.082-.45.5.208 17.283-30.845-25.24 38.66zm10.104-10.78l25.765-37.797-.052-.022-.035-.083-5.87 3.846.24.576-.45 1.084-1.082.45-.499-.208L26.125 173.7zm20.233-34.874l5.27-3.452-.238-.577.448-1.084 1.082-.45.77.32 16.085-18.215-23.417 23.458zm29.809-29.463l.089.214 5.428-.503.41-.992 1.083-.45 1.038.432 31.705-24.746-39.753 26.045zm45.352-28.195l-1.082.449-1.039-.431-33.437 26.098 53.129-30.833-17.156 3.552.034.08-.449 1.085zm2.887-2.135l14.512-3.005-.034-.08.449-1.085 1.082-.448 1.082.448.157.38 36.106-13.59-53.354 17.38zm19.872-4.302l42.334-10.738-.056-.137.448-1.084.64-.266-.418-2.647-.011.005-1.083-.45-.157-.38-41.697 15.697zm44.423-16.293l-.404.976-.64.266.418 2.647.011-.004 1.082.449.23.555 33.527-7.726-34.224 2.837zm38.671-2.865l-.258.624-1.083.448-1.08-.448-.23-.556-33.218 7.655 51.739-4.987-15.87-2.736zm74.41 12.762l-1.083.449-1.08-.45-.45-1.084.005-.01-47.806-7.612 60.284 13.998-9.795-5.473-.075.182zm6.345 2.81l3.871 2.164.076-.182.052-.022-4-1.96zm6.508 3.19l-.114.273 16.87 7.936-16.756-8.21zm2.183 1.843l54.429 33.25-13.387-13.41-.853.353-1.084-.45-.446-1.083.164-.398-38.823-18.262zm44.579 22.733l11.512 11.532 6.618 4.043-18.13-15.575zm12.89 12.913l2.55 2.555 3.34 1.042-5.89-3.597zm11.837 9.337l10.173 12.711 18.778 18.81-28.95-31.521zm36.78 40.642l-.077.032.316 4.317.96.398.448 1.084-.448 1.084-.195.081 21.821 39.756-22.826-46.752z"/>
      <path fill="#DCEAFA" d="M309.004 118.686a6.073 6.073 0 0 1 6.069 6.075 6.072 6.072 0 0 1-6.07 6.074 6.072 6.072 0 0 1-6.069-6.074 6.072 6.072 0 0 1 6.07-6.075z"/>
      <path stroke="#5F2CF0" stroke-width="1.2" d="M170.813 69.779c11.775 0 21.32 9.554 21.32 21.338 0 11.785-9.545 21.339-21.32 21.339s-21.32-9.554-21.32-21.339c0-11.784 9.545-21.338 21.32-21.338z" opacity=".175"/>
      <path fill="#EEF7FF" stroke="#7800F5" stroke-width="1.8" d="M309.004 118.375a6.072 6.072 0 0 1 6.069 6.074 6.072 6.072 0 0 1-6.07 6.075 6.072 6.072 0 0 1-6.069-6.075 6.072 6.072 0 0 1 6.07-6.074z"/>
      <path fill="#0045D2" d="M170.968 86.6a4.67 4.67 0 0 1 4.669 4.673 4.67 4.67 0 0 1-4.669 4.673 4.67 4.67 0 0 1-4.668-4.673 4.67 4.67 0 0 1 4.668-4.673z"/>
      <path fill="#7800F5" d="M309.16 122.84a1.557 1.557 0 1 1-.002 3.114 1.557 1.557 0 0 1 .001-3.114z"/>
      <g opacity=".384" transform="translate(310.784)">
        <use fill="#FFF" fill-opacity="0" xlink:href="#d"/>
        <use fill="#000" filter="url(#e)" xlink:href="#d"/>
      </g>
      <g opacity=".9" transform="translate(310.784)">
        <use fill="#FFF" fill-opacity="0" xlink:href="#f"/>
        <use fill="#000" filter="url(#g)" xlink:href="#f"/>
      </g>
      <path fill="url(#h)" fill-rule="nonzero" d="M36.929 19.248c9.485 0 17.174 7.696 17.174 17.19 0 9.494-7.689 17.19-17.174 17.19s-17.175-7.696-17.175-17.19c0-9.494 7.69-17.19 17.175-17.19z" transform="translate(310.784)"/>
      <g fill="#FFF" fill-rule="nonzero">
        <path d="M351.642 30.247h5.002l-7.093 13.062h-4.976z"/>
        <path fill-opacity=".798" d="M346.432 37.766l-2.002-3.787h-4.96l4.51 8.397z"/>
      </g>
      <path fill="#EEF7FF" stroke="#5F2CF0" stroke-width="1.8" d="M170.968 80.059c6.188 0 11.205 5.02 11.205 11.214 0 6.194-5.017 11.215-11.205 11.215s-11.204-5.021-11.204-11.215c0-6.193 5.016-11.214 11.204-11.214z"/>
      <path stroke="#5F2CF0" stroke-width="1.2" d="M170.813 74.451c9.196 0 16.651 7.462 16.651 16.666 0 9.205-7.455 16.666-16.651 16.666-9.197 0-16.652-7.461-16.652-16.666 0-9.204 7.455-16.666 16.652-16.666z" opacity=".412"/>
      <path fill="#5F2CF0" d="M163.953 29.594a3.634 3.634 0 0 1 3.632 3.635 3.634 3.634 0 0 1-3.632 3.635 3.634 3.634 0 0 1-3.632-3.635 3.634 3.634 0 0 1 3.632-3.635z"/>
      <path stroke="url(#i)" stroke-linecap="square" d="M9.858 3.634l6.745 57.63" transform="translate(154.095 29.594)"/>
      <path fill="url(#j)" fill-rule="nonzero" d="M16.692 57.905a3.591 3.591 0 0 1 3.59 3.593 3.591 3.591 0 0 1-3.59 3.593 3.591 3.591 0 0 1-3.59-3.593 3.591 3.591 0 0 1 3.59-3.593z" transform="translate(154.095 29.594)"/>
      <path stroke="url(#k)" stroke-linecap="square" d="M309.228 124.086l32.427-71.908"/>
    </g>
  </g>
</svg>
