<svg xmlns="http://www.w3.org/2000/svg" xmlns:xlink="http://www.w3.org/1999/xlink" width="335" height="196" viewBox="0 0 335 196">
    <defs>
        <radialGradient id="a" cx="47.272%" cy="55.099%" r="56.065%" fx="47.272%" fy="55.099%" gradientTransform="matrix(0 -1 1.1798 0 -.177 1.024)">
            <stop offset="0%" stop-color="#88A6C3"/>
            <stop offset="36.348%" stop-color="#BFD7F1" stop-opacity=".696"/>
            <stop offset="100%" stop-color="#E5EDFC" stop-opacity=".165"/>
        </radialGradient>
        <path id="c" d="M166.938 177.26c67.344 0 121.938-21.997 121.938-49.13 0-27.134-54.594-49.13-121.938-49.13C99.593 79 45 100.996 45 128.13c0 27.133 54.593 49.13 121.938 49.13z"/>
        <filter id="b" width="104.5%" height="111.1%" x="-2.2%" y="-5.6%" filterUnits="objectBoundingBox">
            <feMorphology in="SourceAlpha" radius="4" result="shadowSpreadInner1"/>
            <feGaussianBlur in="shadowSpreadInner1" result="shadowBlurInner1" stdDeviation="3"/>
            <feOffset in="shadowBlurInner1" result="shadowOffsetInner1"/>
            <feComposite in="shadowOffsetInner1" in2="SourceAlpha" k2="-1" k3="1" operator="arithmetic" result="shadowInnerInner1"/>
            <feColorMatrix in="shadowInnerInner1" values="0 0 0 0 1 0 0 0 0 1 0 0 0 0 1 0 0 0 0.5 0"/>
        </filter>
        <path id="e" d="M167.904 186.766c80.028 0 144.904-26.14 144.904-58.383C312.808 96.139 247.932 70 167.904 70 87.876 70 23 96.139 23 128.383s64.876 58.383 144.904 58.383z"/>
        <filter id="d" width="103.8%" height="109.3%" x="-1.9%" y="-4.7%" filterUnits="objectBoundingBox">
            <feMorphology in="SourceAlpha" radius="4" result="shadowSpreadInner1"/>
            <feGaussianBlur in="shadowSpreadInner1" result="shadowBlurInner1" stdDeviation="3"/>
            <feOffset in="shadowBlurInner1" result="shadowOffsetInner1"/>
            <feComposite in="shadowOffsetInner1" in2="SourceAlpha" k2="-1" k3="1" operator="arithmetic" result="shadowInnerInner1"/>
            <feColorMatrix in="shadowInnerInner1" values="0 0 0 0 1 0 0 0 0 1 0 0 0 0 1 0 0 0 0.5 0"/>
        </filter>
        <path id="g" d="M166.776 195.39c92.108 0 166.776-30.084 166.776-67.195 0-37.11-74.668-67.195-166.776-67.195S0 91.084 0 128.195c0 37.111 74.668 67.196 166.776 67.196z"/>
        <filter id="f" width="103.3%" height="108.1%" x="-1.6%" y="-4%" filterUnits="objectBoundingBox">
            <feMorphology in="SourceAlpha" radius="4" result="shadowSpreadInner1"/>
            <feGaussianBlur in="shadowSpreadInner1" result="shadowBlurInner1" stdDeviation="3"/>
            <feOffset in="shadowBlurInner1" result="shadowOffsetInner1"/>
            <feComposite in="shadowOffsetInner1" in2="SourceAlpha" k2="-1" k3="1" operator="arithmetic" result="shadowInnerInner1"/>
            <feColorMatrix in="shadowInnerInner1" values="0 0 0 0 0.890607926 0 0 0 0 0.924936955 0 0 0 0 0.985012755 0 0 0 0.591230752 0"/>
        </filter>
        <linearGradient id="h" x1="50%" x2="50%" y1="100%" y2="0%">
            <stop offset="0%" stop-color="#7C4FFF"/>
            <stop offset="100%" stop-color="#00A2FF"/>
        </linearGradient>
        <linearGradient id="i" x1="49.998%" x2="49.998%" y1="100%" y2="0%">
            <stop offset="1%" stop-color="#00A2FF"/>
            <stop offset="100%" stop-color="#0FDEA0"/>
        </linearGradient>
    </defs>
    <g fill="none" fill-rule="evenodd" transform="translate(1)">
        <ellipse cx="167" cy="128" fill="url(#a)" opacity=".592" rx="122" ry="49"/>
        <use fill="#000" filter="url(#b)" xlink:href="#c"/>
        <use stroke="#DFE8FF" stroke-width=".95" xlink:href="#c"/>
        <g opacity=".666">
            <use fill="#000" filter="url(#d)" xlink:href="#e"/>
            <use stroke="#DFE8FF" stroke-width=".902" xlink:href="#e"/>
        </g>
        <g opacity=".555">
            <use fill="#000" filter="url(#f)" xlink:href="#g"/>
            <use stroke="#DFE8FF" stroke-width=".849" xlink:href="#g"/>
        </g>
        <g>
            <g fill-rule="nonzero">
                <path fill="url(#h)" d="M0 44.127l53.81 88.29 34.74-20.871-41.09-67.419z" transform="translate(82)"/>
                <path fill="url(#i)" d="M122.605 0h47.465l-68.8 132.417H53.81z" transform="translate(82)"/>
            </g>
            <g fill-rule="nonzero" opacity=".04">
                <path fill="#08F" d="M210.996 183h48.857l-76.348-50.941h-48.563L206.01 183z"/>
                <path fill="#27A0FF" d="M163.726 149.768l-22.633 14.676H85l50.997-32.546z"/>
            </g>
        </g>
    </g>
</svg>
