<svg xmlns="http://www.w3.org/2000/svg" xmlns:xlink="http://www.w3.org/1999/xlink" width="65" height="65" viewBox="0 0 65 65">
    <defs>
        <linearGradient id="a" x1="50%" x2="50%" y1="100%" y2="27.331%">
            <stop offset="0%" stop-color="#EEF4FC"/>
            <stop offset="100%" stop-color="#5AB1FF"/>
        </linearGradient>
        <linearGradient id="b" x1="74.058%" x2="27.808%" y1="88.137%" y2="0%">
            <stop offset="0%" stop-color="#0218DE"/>
            <stop offset="51.111%" stop-color="#0134E5"/>
            <stop offset="100%" stop-color="#0092FB"/>
        </linearGradient>
        <linearGradient id="e" x1="53.191%" x2="53.191%" y1="100%" y2="0%">
            <stop offset="0%" stop-color="#0218DE"/>
            <stop offset="51.111%" stop-color="#0134E5"/>
            <stop offset="100%" stop-color="#0092FB"/>
        </linearGradient>
        <path id="d" d="M42.436 52.86c-6.22 0-11.243-5.064-11.243-11.217 0-.489.056-.925.11-1.416.709-5.608 5.512-9.855 11.186-9.855 1.473 0 2.837.272 4.201.816 4.31 1.742 7.039 5.825 7.039 10.4-.051 6.26-5.074 11.271-11.293 11.271z"/>
        <filter id="c" width="166.6%" height="166.7%" x="-33.3%" y="-24.5%" filterUnits="objectBoundingBox">
            <feMorphology in="SourceAlpha" operator="dilate" radius=".5" result="shadowSpreadOuter1"/>
            <feOffset dy="2" in="shadowSpreadOuter1" result="shadowOffsetOuter1"/>
            <feGaussianBlur in="shadowOffsetOuter1" result="shadowBlurOuter1" stdDeviation="2"/>
            <feComposite in="shadowBlurOuter1" in2="SourceAlpha" operator="out" result="shadowBlurOuter1"/>
            <feColorMatrix in="shadowBlurOuter1" values="0 0 0 0 0 0 0 0 0 0.113108169 0 0 0 0 0.684762968 0 0 0 1 0"/>
        </filter>
        <path id="g" d="M48.221 46.27a.781.781 0 0 1-.654.328.878.878 0 0 1-.49-.164l-5.129-3.866a.778.778 0 0 1-.328-.653v-8.547c0-.436.381-.816.818-.816.437 0 .819.38.819.816v8.167l4.802 3.647c.38.217.435.708.162 1.089z"/>
        <filter id="f" width="306.7%" height="199.7%" x="-103.4%" y="-35.6%" filterUnits="objectBoundingBox">
            <feOffset dy="2" in="SourceAlpha" result="shadowOffsetOuter1"/>
            <feGaussianBlur in="shadowOffsetOuter1" result="shadowBlurOuter1" stdDeviation="2"/>
            <feColorMatrix in="shadowBlurOuter1" values="0 0 0 0 0 0 0 0 0 0.113108169 0 0 0 0 0.684762968 0 0 0 1 0"/>
        </filter>
    </defs>
    <g fill="none" fill-rule="evenodd">
        <rect width="38.888" height="50.577" x="8" y="1" stroke="#69AEDE" stroke-width="2" opacity=".4" rx="2"/>
        <ellipse cx="42.436" cy="42.605" fill="#FFF" rx="19.989" ry="19.943"/>
        <path stroke="#B6E1FF" stroke-linecap="round" stroke-linejoin="round" stroke-width="2" d="M16.086 7.252H39.71M16.086 11.784H39.71M16.086 16.317H39.71M16.086 20.85H39.71"/>
        <ellipse cx="42.436" cy="43.99" fill="url(#a)" stroke="#FFF" stroke-width=".758" opacity=".971" rx="19.081" ry="20.313"/>
        <ellipse cx="42.434" cy="41.696" fill="#FFF" rx="18.17" ry="18.128"/>
        <path fill="url(#b)" fill-rule="nonzero" d="M46.039 32.716c-1.147-.436-2.347-.709-3.603-.709-4.856 0-9.004 3.648-9.55 8.439-.055.38-.055.817-.055 1.197 0 5.28 4.31 9.636 9.658 9.636 5.293 0 9.659-4.3 9.659-9.636a9.713 9.713 0 0 0-6.11-8.927zm-3.603-9.147c9.987 0 18.172 8.111 18.172 18.13 0 10.019-8.132 18.13-18.172 18.13-10.043 0-18.172-8.114-18.172-18.13 0-10.02 8.185-18.13 18.172-18.13zm0 1.089c-9.441 0-17.081 7.622-17.081 17.04 0 9.42 7.64 17.042 17.08 17.042 9.442 0 17.082-7.622 17.082-17.041 0-9.42-7.64-17.041-17.081-17.041zm0 34.57c-9.714 0-17.627-7.894-17.627-17.585s7.913-17.585 17.627-17.585c9.714 0 17.626 7.894 17.626 17.585-.055 9.691-7.912 17.586-17.626 17.586z"/>
        <use fill="#000" filter="url(#c)" xlink:href="#d"/>
        <use fill="url(#e)" stroke="#FFF" xlink:href="#d"/>
        <g>
            <use fill="#000" filter="url(#f)" xlink:href="#g"/>
            <use fill="#FFF" xlink:href="#g"/>
        </g>
    </g>
</svg>
