<svg xmlns="http://www.w3.org/2000/svg" xmlns:xlink="http://www.w3.org/1999/xlink" width="65" height="65" viewBox="0 0 65 65">
    <defs>
        <linearGradient id="a" x1="50%" x2="50%" y1="100%" y2="27.331%">
            <stop offset="0%" stop-color="#E0ECFC"/>
            <stop offset="100%" stop-color="#4DAAFF"/>
        </linearGradient>
        <linearGradient id="b" x1="78.823%" x2="30.229%" y1="89.642%" y2="5.86%">
            <stop offset="0%" stop-color="#0218DE"/>
            <stop offset="51.111%" stop-color="#0134E5"/>
            <stop offset="100%" stop-color="#0092FB"/>
        </linearGradient>
        <linearGradient id="c" x1="77.511%" x2="26.361%" y1="84.572%" y2="10.498%">
            <stop offset="0%" stop-color="#0218DE"/>
            <stop offset="51.111%" stop-color="#0134E5"/>
            <stop offset="100%" stop-color="#0092FB"/>
        </linearGradient>
        <path id="e" d="M51.498 4.129a.304.304 0 0 0-.277.204L49.786 8.64l-4.675-.01a.305.305 0 0 0-.29.204.29.29 0 0 0 .111.331l3.788 2.653-1.455 4.304a.29.29 0 0 0 .111.33.312.312 0 0 0 .359 0l3.777-2.668 3.778 2.668a.312.312 0 0 0 .358 0 .29.29 0 0 0 .11-.33l-1.454-4.304 3.788-2.653a.29.29 0 0 0 .112-.33.304.304 0 0 0-.291-.204l-4.674.01-1.437-4.309a.305.305 0 0 0-.303-.204z"/>
        <filter id="d" width="152.2%" height="156.5%" x="-26.1%" y="-20.2%" filterUnits="objectBoundingBox">
            <feOffset dy="1" in="SourceAlpha" result="shadowOffsetOuter1"/>
            <feGaussianBlur in="shadowOffsetOuter1" result="shadowBlurOuter1" stdDeviation="1"/>
            <feColorMatrix in="shadowBlurOuter1" values="0 0 0 0 0.0123578813 0 0 0 0 0.131988672 0 0 0 0 0.629544005 0 0 0 1 0"/>
        </filter>
        <path id="g" d="M31.384 19.78c4.33 0 7.861 3.327 7.861 7.406 0 4.078-3.53 7.405-7.86 7.405s-7.862-3.327-7.862-7.405c0-4.081 3.531-7.405 7.861-7.405z"/>
        <filter id="f" width="189%" height="194.5%" x="-44.5%" y="-33.8%" filterUnits="objectBoundingBox">
            <feOffset dy="2" in="SourceAlpha" result="shadowOffsetOuter1"/>
            <feGaussianBlur in="shadowOffsetOuter1" result="shadowBlurOuter1" stdDeviation="2"/>
            <feColorMatrix in="shadowBlurOuter1" values="0 0 0 0 0 0 0 0 0 0.113108169 0 0 0 0 0.684762968 0 0 0 1 0"/>
        </filter>
        <path id="i" d="M31.323 57.548c-6.033 0-11.225-1.764-15.577-5.291 0-7.72 7.19-16.101 15.577-16.101s14.931 9.153 14.931 16.812c-3.92 3.053-8.898 4.58-14.93 4.58z"/>
        <filter id="h" width="113.1%" height="118.7%" x="-6.6%" y="-4.7%" filterUnits="objectBoundingBox">
            <feOffset dy="1" in="SourceAlpha" result="shadowOffsetOuter1"/>
            <feGaussianBlur in="shadowOffsetOuter1" result="shadowBlurOuter1" stdDeviation=".5"/>
            <feColorMatrix in="shadowBlurOuter1" values="0 0 0 0 0 0 0 0 0 0.113108169 0 0 0 0 0.684762968 0 0 0 1 0"/>
        </filter>
    </defs>
    <g fill="none" fill-rule="evenodd">
        <ellipse cx="31.889" cy="33.533" fill="url(#a)" rx="28.889" ry="30.437"/>
        <circle cx="31.728" cy="30.954" r="27.857" fill="url(#b)"/>
        <circle cx="50.929" cy="11.349" r="11.349" fill="#FFF"/>
        <circle cx="50.769" cy="11.006" r="10.317" fill="url(#c)"/>
        <g fill-rule="nonzero">
            <use fill="#000" filter="url(#d)" xlink:href="#e"/>
            <use fill="#FFF" fill-rule="evenodd" xlink:href="#e"/>
        </g>
        <use fill="#000" filter="url(#f)" xlink:href="#g"/>
        <use fill="#FFF" xlink:href="#g"/>
        <g>
            <use fill="#000" filter="url(#h)" xlink:href="#i"/>
            <use fill="#FFF" xlink:href="#i"/>
        </g>
    </g>
</svg>
