<svg xmlns="http://www.w3.org/2000/svg" width="65" height="65" viewBox="0 0 65 65">
    <defs>
        <linearGradient id="a" x1="50%" x2="50%" y1="35.901%" y2="25.647%">
            <stop offset="0%" stop-color="#F5F9FE" stop-opacity="0"/>
            <stop offset="73.325%" stop-color="#7CBFFC"/>
            <stop offset="100%" stop-color="#62B3FC" stop-opacity="0"/>
        </linearGradient>
        <linearGradient id="b" x1="50%" x2="50%" y1="102.197%" y2="76.48%">
            <stop offset="0%" stop-color="#E0EDFE"/>
            <stop offset="54.374%" stop-color="#83C2FB"/>
            <stop offset="100%" stop-color="#62B3FC" stop-opacity="0"/>
        </linearGradient>
        <linearGradient id="c" x1="53.191%" x2="53.191%" y1="100%" y2="0%">
            <stop offset="0%" stop-color="#0218DE"/>
            <stop offset="51.111%" stop-color="#0134E5"/>
            <stop offset="100%" stop-color="#0092FB"/>
        </linearGradient>
    </defs>
    <g fill="none" fill-rule="nonzero">
        <path fill="url(#a)" d="M6.347 48.833h52.31v3.357H6.346v-3.357zM3 53.423h59.007v3.354H3v-3.355zm9.238-28.299h5.888v22.439h-5.888V25.124zm17.321 0h5.888v22.439H29.56V25.124zm17.325 0h5.888v22.439h-5.888V25.124zm-38.04-4.72h47.322v3.357H8.843v-3.357zm-3.068-.932L32.503 7l26.728 12.472H5.776z"/>
        <path fill="url(#b)" d="M6.347 49.833h52.31v3.357H6.346v-3.357zM3 54.423h59.007v3.354H3v-3.355zm9.238-28.299h5.888v22.439h-5.888V26.124zm17.321 0h5.888v22.439H29.56V26.124zm17.325 0h5.888v22.439h-5.888V26.124zm-38.04-4.72h47.322v3.357H8.843v-3.357zm-3.068-.932L32.503 8l26.728 12.472H5.776z" opacity=".971"/>
        <path fill="url(#c)" d="M6.347 46.833h52.31v3.357H6.346v-3.357zM3 51.423h59.007v3.354H3v-3.355zm9.238-28.299h5.888v22.439h-5.888V23.124zm17.321 0h5.888v22.439H29.56V23.124zm17.325 0h5.888v22.439h-5.888V23.124zm-38.04-4.72h47.322v3.357H8.843v-3.357zm-3.068-.932L32.503 5l26.728 12.472H5.776z"/>
    </g>
</svg>
