<svg xmlns="http://www.w3.org/2000/svg" width="65" height="65" viewBox="0 0 65 65">
  <g fill="#007DB8">
    <path d="M32.5,61.0606061 C24.6113636,61.0606061 17.4672727,57.8608333 12.2948485,52.6844697 C7.12045455,47.5199242 3.92265152,40.3718939 3.92265152,32.4793182 C3.92265152,24.5926515 7.12045455,17.4495455 12.2948485,12.2830303 C17.4672727,7.11356061 24.6113636,3.90787879 32.5,3.90787879 C40.3906061,3.90787879 47.5386364,7.11356061 52.7031818,12.2830303 C57.8756061,17.4495455 61.0665152,24.5926515 61.0665152,32.4793182 C61.0665152,40.3718939 57.8756061,47.5199242 52.7031818,52.6844697 C47.5386364,57.8608333 40.3906061,61.0606061 32.5,61.0606061 M32.5,64.5233333 C50.192803,64.5233333 64.5381061,50.1760606 64.5381061,32.4793182 C64.5381061,14.7884848 50.192803,0.443181818 32.5,0.443181818 C14.8091667,0.443181818 0.457954545,14.7884848 0.457954545,32.4793182 C0.457954545,50.1760606 14.8091667,64.5233333 32.5,64.5233333" transform="matrix(1 0 0 -1 0 65)"/>
    <path d="M8.91323251,8.47826087 C8.91323251,10.3759783 7.66736068,11.4539538 5.903531,11.4539538 L4.82403951,11.4539538 L4.82403951,5.50056612 L5.87282987,5.50056612 C7.51286465,5.50056612 8.91323251,6.40138134 8.91323251,8.47826087 Z M28.1153064,6.33632246 L20.1627223,0.0075951087 L12.8944764,5.7908288 C11.845686,3.24452446 9.3113569,1.47592391 6.39276843,1.47592391 L0.172322495,1.47592391 L0.172322495,15.4805978 L6.39276843,15.4805978 C9.65402117,15.4805978 12.0041435,13.3847011 12.8924957,11.1516803 L20.1627223,16.9289085 L22.8555089,14.7869701 L16.1923724,9.49418025 L17.4729068,8.48126359 L24.1340626,13.7710507 L26.8308106,11.6351178 L20.1686645,6.33632246 L21.4472181,5.32140399 L28.1153064,10.6212002 L28.1153064,15.4805978 L32.9492495,15.4805978 L32.9492495,5.56362319 L37.7713083,5.56362319 L37.7713083,1.45890851 L28.1153064,1.45890851 L28.1153064,6.33632246 Z M43.8946991,5.56162138 L48.7147771,5.56162138 L48.7147771,1.45890851 L39.0558042,1.45890851 L39.0558042,15.4805978 L43.8946991,15.4805978 L43.8946991,5.56162138 Z" transform="matrix(1 0 0 -1 8.478 41.45)"/>
  </g>
</svg>
