<svg xmlns="http://www.w3.org/2000/svg" width="65" height="65" viewBox="0 0 65 65">
  <g fill="none">
    <path fill="#1AB4D7" d="M32.5795465,0.740432468 C50.1451727,0.740432468 64.3847619,14.9800217 64.3847619,32.5457561 C64.3847619,50.1112741 50.1451727,64.3509715 32.5795465,64.3509715 C15.0139203,64.3509715 0.774222839,50.1112741 0.774222839,32.5457561 C0.774222839,14.9800217 15.0139203,0.740432468 32.5795465,0.740432468" transform="matrix(1 0 0 -1 0 65.091)"/>
    <path fill="#FFF" d="M15.9989198,32.4520497 L21.4267507,37.8932982 C21.6066974,38.0767074 21.7071126,38.3195218 21.7071126,38.5770521 C21.7071126,39.1137541 21.2708259,39.5496079 20.7341239,39.5496079 C20.4726982,39.5496079 20.2276115,39.4471368 20.0427956,39.2600486 C20.0422546,39.2589665 14.6198339,33.8396838 14.6198339,33.8396838 L9.17263402,39.2681641 C8.98857556,39.4496256 8.74467917,39.5496079 8.48606675,39.5496079 C7.95001407,39.5496079 7.51361914,39.1139705 7.51361914,38.5778096 C7.51361914,38.3162756 7.61803796,38.0708643 7.80545081,37.8859402 L13.2325243,32.4596241 L7.80826416,27.0251926 C7.61760513,26.8374551 7.51361914,26.5915028 7.51361914,26.3287785 C7.51361914,25.7921848 7.95001407,25.356872 8.48606675,25.356872 C8.74511199,25.356872 8.9892248,25.4573954 9.17263402,25.6409128 L14.6113938,31.0723146 L20.0294863,25.6607145 C20.2216602,25.4620482 20.4695602,25.3562227 20.7341239,25.3562227 C21.2702848,25.3562227 21.7065715,25.7921848 21.7065715,26.3287785 C21.7065715,26.5877156 21.6062646,26.8309627 21.423721,27.014372 L15.9989198,32.4520497 Z" transform="matrix(1 0 0 -1 0 64.906)"/>
    <path fill="#FFF" d="M48.2664996,32.4520497 C48.2664996,31.4775462 49.0588923,30.6848288 50.0345861,30.6848288 C51.0080076,30.6848288 51.800725,31.4775462 51.800725,32.4520497 C51.800725,33.4267696 51.0080076,34.2193788 50.0345861,34.2193788 C49.0588923,34.2193788 48.2664996,33.4267696 48.2664996,32.4520497" transform="matrix(1 0 0 -1 0 64.904)"/>
    <path fill="#FFF" d="M44.9147095,32.4516169 C44.9147095,35.2736302 47.2104087,37.5697622 50.0327466,37.5697622 C52.8536779,37.5697622 55.1499181,35.2736302 55.1499181,32.4516169 C55.1499181,29.6302528 52.8536779,27.3350946 50.0327466,27.3350946 C47.2104087,27.3350946 44.9147095,29.6302528 44.9147095,32.4516169 M42.9014281,32.4516169 C42.9014281,28.5200589 46.1005394,25.3213804 50.0327466,25.3213804 C53.9648456,25.3213804 57.1655801,28.5200589 57.1655801,32.4516169 C57.1655801,36.3837159 53.9648456,39.58326 50.0327466,39.58326 C46.1005394,39.58326 42.9014281,36.3837159 42.9014281,32.4516169" transform="matrix(1 0 0 -1 0 64.905)"/>
    <path fill="#FFF" d="M42.3952403,39.4622857 L42.0960506,39.4631513 C41.1978323,39.4631513 40.3315348,39.1798679 39.6079611,38.6222823 C39.5126316,39.058569 39.122657,39.3868661 38.6581285,39.3868661 C38.1234825,39.3868661 37.6950949,38.9584784 37.6937964,38.4227503 C37.6937964,38.4208026 37.6970426,26.4118808 37.6970426,26.4118808 C37.6984492,25.8771266 38.1346278,25.4424629 38.6695984,25.4424629 C39.2044608,25.4424629 39.6405311,25.8771266 39.6419378,26.413071 C39.6419378,26.4154516 39.6423706,33.7982409 39.6423706,33.7982409 C39.6423706,36.2597117 39.8674392,37.2538006 41.9759419,37.5172823 C42.170821,37.5415204 42.3827966,37.5377332 42.3836622,37.5377332 C42.9606168,37.5575349 43.3706094,37.9540018 43.3706094,38.4898381 C43.3706094,39.025999 42.932916,39.4622857 42.3952403,39.4622857" transform="matrix(1 0 0 -1 0 64.906)"/>
    <path fill="#FFF" d="M23.7216925,33.6601811 C23.7216925,33.6867998 23.7237484,33.7145005 23.7250469,33.7418766 C24.2896659,35.9738425 26.3110628,37.6254993 28.7184306,37.6254993 C31.1549059,37.6254993 33.194806,35.9332652 33.730534,33.6601811 L23.7216925,33.6601811 Z M35.7220661,33.8438067 C35.3029841,35.8279807 34.2167037,37.45778 32.5625581,38.5044569 C30.1445861,40.0395759 26.9516425,39.9546342 24.6161235,38.2937798 C22.7110481,36.9384992 21.6113502,34.7214659 21.6113502,32.4376693 C21.6113502,31.865043 21.6803857,31.2870064 21.8240833,30.7180591 C22.543437,27.8882549 24.976125,25.7461001 27.8764795,25.3910761 C28.7371503,25.2868737 29.5748814,25.3367567 30.4423691,25.5613924 C31.1878005,25.7427457 31.9091019,26.0450734 32.5737034,26.4709723 C33.2635168,26.9144006 33.8398221,27.499146 34.3979488,28.1991309 C34.4092023,28.2120074 34.4205639,28.223369 34.4318173,28.2368948 C34.8191949,28.7173295 34.7473461,29.4005424 34.3216636,29.7266754 C33.962636,30.0018434 33.3599284,30.1134038 32.8856613,29.5060433 C32.7837313,29.3608308 32.6700067,29.2113983 32.5448123,29.0619658 C32.1677143,28.6452643 31.6998314,28.2415476 31.139216,27.9283994 C30.4258136,27.5472977 29.6128617,27.329479 28.7486201,27.3246097 C25.919898,27.3560977 24.4062038,29.3306413 23.8677706,30.7400249 C23.7737396,31.003182 23.7012415,31.2761858 23.6507093,31.5573051 C23.6441088,31.6098932 23.6392395,31.6606418 23.6372918,31.7073868 C24.2221454,31.7073868 33.7883161,31.7090099 33.7883161,31.7090099 C35.1799538,31.7382255 35.928956,32.7205199 35.7220661,33.8438067 Z" transform="matrix(1 0 0 -1 0 64.94)"/>
  </g>
</svg>
