<?xml version="1.0" encoding="UTF-8"?>
<svg width="188px" height="40px" viewBox="0 0 188 40" version="1.1" xmlns="http://www.w3.org/2000/svg" xmlns:xlink="http://www.w3.org/1999/xlink">
    <!-- Generator: Sketch 49.3 (51167) - http://www.bohemiancoding.com/sketch -->
    <title>mobile-menu-chainpoint</title>
    <desc>Created with Sketch.</desc>
    <defs>
        <linearGradient x1="50%" y1="0%" x2="50%" y2="98.3199139%" id="linearGradient-1">
            <stop stop-color="#FF450A" offset="0%"></stop>
            <stop stop-color="#C83608" offset="100%"></stop>
        </linearGradient>
        <linearGradient x1="50%" y1="0%" x2="50%" y2="100%" id="linearGradient-2">
            <stop stop-color="#FF450A" offset="0%"></stop>
            <stop stop-color="#D13909" offset="100%"></stop>
        </linearGradient>
    </defs>
    <g id="Page-1" stroke="none" stroke-width="1" fill="none" fill-rule="evenodd">
        <g id="mobile-menu-chainpoint" transform="translate(0.000000, -3.000000)">
            <g id="Logo-chainpoint" transform="translate(0.000000, 6.000000)">
                <rect id="Rectangle-22-Copy-2" fill="url(#linearGradient-1)" transform="translate(22.879584, 6.093360) rotate(45.000000) translate(-22.879584, -6.093360) " x="20.756736" y="5.15592" width="4.245696" height="1.87488"></rect>
                <rect id="Rectangle-22-Copy-3" fill="url(#linearGradient-2)" transform="translate(18.869760, 24.607800) rotate(-135.000000) translate(-18.869760, -24.607800) " x="16.982784" y="23.90472" width="3.773952" height="1.40616"></rect>
                <g id="logo-chainpoint" stroke-width="1" fill="#FF450A">
                    <path d="M24.0507018,22.2665688 L21.3000863,19.5159533 L25.4414109,15.3746288 L15.647956,5.58117392 L5.79131764,15.4378123 L15.5847725,25.2312672 L20.7463426,20.0696971 L23.4969581,22.8203125 L15.4559206,30.8613501 L0.0504859925,15.4559155 L15.5553105,-0.0489089787 L30.960745,15.3565256 L24.0507018,22.2665688 Z" id="Rectangle-3"></path>
                    <path d="M17.6901662,8.46655709 L20.5515304,11.3279213 L16.4416394,15.4378123 L26.2350942,25.2312672 L36.0917327,15.3746288 L26.2982778,5.58117392 L21.1052741,10.7741776 L18.2439099,7.91281336 L26.2056322,-0.0489089787 L41.6110668,15.3565256 L26.1062423,30.8613501 L10.7008078,15.4559155 L17.6901662,8.46655709 Z" id="Rectangle-3-Copy-2"></path>
                </g>
            </g>
            <g id="Group" transform="translate(51.000000, 0.000000)">
                <path d="M1.17,27.744 C1.17,22.076 5.018,18.15 10.4,18.15 C14.976,18.15 18.512,20.88 19.266,25.274 L15.912,25.274 C15.288,22.674 13.182,21.166 10.4,21.166 C6.708,21.166 4.498,23.766 4.498,27.744 C4.498,31.722 6.708,34.348 10.4,34.348 C13.182,34.348 15.288,32.84 15.912,30.24 L19.266,30.24 C18.512,34.634 14.976,37.364 10.4,37.364 C5.018,37.364 1.17,33.438 1.17,27.744 Z M25.22,17.5 L25.22,24.962 C25.844,24.052 27.144,23.194 29.146,23.194 C32.422,23.194 34.164,25.378 34.164,28.524 L34.164,37 L31.07,37 L31.07,28.914 C31.07,27.068 30.238,25.846 28.392,25.846 C26.442,25.846 25.22,27.068 25.22,29.2 L25.22,37 L22.126,37 L22.126,17.5 L25.22,17.5 Z M46.124,30.656 L42.536,31.202 C40.638,31.488 40.014,32.19 40.014,33.126 C40.014,34.4 40.924,34.894 42.406,34.894 C44.902,34.894 46.124,33.334 46.124,31.514 L46.124,30.656 Z M41.782,37.312 C38.428,37.312 37.05,35.544 37.05,33.23 C37.05,30.942 38.662,29.46 42.224,28.966 L46.124,28.42 L46.124,28.212 C46.124,26.574 45.084,25.742 43.238,25.742 C41.548,25.742 40.586,26.496 40.378,27.744 L37.362,27.744 C37.622,25.378 39.234,23.194 43.316,23.194 C47.268,23.194 49.14,25.144 49.14,28.238 L49.14,34.452 C49.14,35.336 49.296,36.454 49.53,37 L46.592,37 C46.566,37 46.41,36.324 46.41,35.232 C45.5,36.61 43.94,37.312 41.782,37.312 Z M54.366,21.244 C53.222,21.244 52.416,20.464 52.416,19.346 C52.416,18.202 53.222,17.396 54.366,17.396 C55.484,17.396 56.29,18.202 56.29,19.346 C56.29,20.464 55.484,21.244 54.366,21.244 Z M52.806,37 L52.806,23.506 L55.9,23.506 L55.9,37 L52.806,37 Z M62.504,23.506 L62.504,25.3 C63.076,24.234 64.454,23.194 66.664,23.194 C69.94,23.194 71.682,25.378 71.682,28.524 L71.682,37 L68.588,37 L68.588,28.914 C68.588,27.068 67.756,25.846 65.91,25.846 C63.96,25.846 62.738,27.068 62.738,29.174 L62.738,37 L59.644,37 L59.644,23.506 L62.504,23.506 Z M78.416,35.232 L78.416,42.408 L75.322,42.408 L75.322,23.506 L78.182,23.506 L78.182,25.43 C79.066,24.052 80.652,23.194 82.732,23.194 C86.736,23.194 88.998,26.392 88.998,30.266 C88.998,34.114 86.736,37.312 82.732,37.312 C80.652,37.312 79.17,36.402 78.416,35.232 Z M78.312,30.266 C78.312,32.684 79.742,34.582 82.108,34.582 C84.448,34.582 85.904,32.684 85.904,30.266 C85.904,27.77 84.448,25.872 82.108,25.872 C79.742,25.872 78.312,27.77 78.312,30.266 Z M97.968,37.312 C93.678,37.312 90.974,34.062 90.974,30.266 C90.974,26.47 93.678,23.194 97.968,23.194 C102.284,23.194 104.988,26.47 104.988,30.266 C104.988,34.062 102.284,37.312 97.968,37.312 Z M94.068,30.266 C94.068,32.866 95.732,34.582 97.968,34.582 C100.23,34.582 101.894,32.866 101.894,30.266 C101.894,27.64 100.23,25.924 97.968,25.924 C95.732,25.924 94.068,27.64 94.068,30.266 Z M109.408,21.244 C108.264,21.244 107.458,20.464 107.458,19.346 C107.458,18.202 108.264,17.396 109.408,17.396 C110.526,17.396 111.332,18.202 111.332,19.346 C111.332,20.464 110.526,21.244 109.408,21.244 Z M107.848,37 L107.848,23.506 L110.942,23.506 L110.942,37 L107.848,37 Z M117.546,23.506 L117.546,25.3 C118.118,24.234 119.496,23.194 121.706,23.194 C124.982,23.194 126.724,25.378 126.724,28.524 L126.724,37 L123.63,37 L123.63,28.914 C123.63,27.068 122.798,25.846 120.952,25.846 C119.002,25.846 117.78,27.068 117.78,29.174 L117.78,37 L114.686,37 L114.686,23.506 L117.546,23.506 Z M136.422,34.244 L136.422,36.922 C136.422,36.922 135.85,37.078 134.81,37.078 C132.054,37.078 130.858,35.648 130.858,33.1 L130.858,25.976 L128.804,25.976 L128.804,23.506 L130.858,23.506 L130.858,19.996 L133.952,19.996 L133.952,23.506 L136.474,23.506 L136.474,25.976 L133.952,25.976 L133.952,32.788 C133.952,33.854 134.394,34.374 135.46,34.374 C135.98,34.374 136.422,34.244 136.422,34.244 Z" id="Chainpoint" fill="#010535"></path>
                <path d="M3.05,11 L1.84,11 L1.84,3.9 L6.48,3.9 L6.48,5.02 L3.05,5.02 L3.05,6.84 L6.31,6.84 L6.31,7.96 L3.05,7.96 L3.05,11 Z M9.22923078,7.45 C9.22923078,8.98 10.2292308,9.99 11.6192308,9.99 C13.0092308,9.99 14.0092308,8.98 14.0092308,7.45 C14.0092308,5.92 13.0092308,4.91 11.6192308,4.91 C10.2292308,4.91 9.22923078,5.92 9.22923078,7.45 Z M7.94923078,7.45 C7.94923078,5.34 9.45923078,3.75 11.6192308,3.75 C13.7792308,3.75 15.2892308,5.34 15.2892308,7.45 C15.2892308,9.56 13.7792308,11.15 11.6192308,11.15 C9.45923078,11.15 7.94923078,9.56 7.94923078,7.45 Z M23.0484616,11 L21.6284616,11 L20.1884616,8.2 L18.5584616,8.2 L18.5584616,11 L17.3484616,11 L17.3484616,3.9 L20.4684616,3.9 C22.0384616,3.9 22.8084616,4.81 22.8084616,6.05 C22.8084616,6.99 22.3584616,7.75 21.4184616,8.05 L23.0484616,11 Z M21.5884616,6.05 C21.5884616,5.44 21.2284616,5.02 20.4784616,5.02 L18.5584616,5.02 L18.5584616,7.08 L20.4784616,7.08 C21.2284616,7.08 21.5884616,6.66 21.5884616,6.05 Z M33.9961539,11 L31.5861539,11 L31.5861539,3.9 L33.9961539,3.9 C36.4461539,3.9 37.8061539,5.36 37.8061539,7.45 C37.8061539,9.54 36.4461539,11 33.9961539,11 Z M36.5261539,7.45 C36.5261539,5.98 35.7061539,5.02 33.9561539,5.02 L32.7961539,5.02 L32.7961539,9.88 L33.9561539,9.88 C35.7061539,9.88 36.5261539,8.92 36.5261539,7.45 Z M44.8653847,9.88 L44.8653847,11 L39.8753847,11 L39.8753847,3.9 L44.8653847,3.9 L44.8653847,5.02 L41.0853847,5.02 L41.0853847,6.84 L44.6953847,6.84 L44.6953847,7.96 L41.0853847,7.96 L41.0853847,9.88 L44.8653847,9.88 Z M51.6446155,3.9 L52.9746155,3.9 L50.2246155,11 L48.9646155,11 L46.2246155,3.9 L47.5946155,3.9 L49.6046155,9.4 L49.6246155,9.4 L51.6446155,3.9 Z M59.6338463,9.88 L59.6338463,11 L54.6438463,11 L54.6438463,3.9 L59.6338463,3.9 L59.6338463,5.02 L55.8538463,5.02 L55.8538463,6.84 L59.4638463,6.84 L59.4638463,7.96 L55.8538463,7.96 L55.8538463,9.88 L59.6338463,9.88 Z M66.273077,9.88 L66.273077,11 L61.773077,11 L61.773077,3.9 L62.983077,3.9 L62.983077,9.88 L66.273077,9.88 Z M68.5523078,7.45 C68.5523078,8.98 69.5523078,9.99 70.9423078,9.99 C72.3323078,9.99 73.3323078,8.98 73.3323078,7.45 C73.3323078,5.92 72.3323078,4.91 70.9423078,4.91 C69.5523078,4.91 68.5523078,5.92 68.5523078,7.45 Z M67.2723078,7.45 C67.2723078,5.34 68.7823078,3.75 70.9423078,3.75 C73.1023078,3.75 74.6123078,5.34 74.6123078,7.45 C74.6123078,9.56 73.1023078,11.15 70.9423078,11.15 C68.7823078,11.15 67.2723078,9.56 67.2723078,7.45 Z M77.8815386,7.08 L79.6215386,7.08 C80.4115386,7.08 80.7715386,6.68 80.7715386,6.06 C80.7715386,5.44 80.4115386,5.02 79.6215386,5.02 L77.8815386,5.02 L77.8815386,7.08 Z M77.8815386,8.2 L77.8815386,11 L76.6715386,11 L76.6715386,3.9 L79.6115386,3.9 C81.3015386,3.9 81.9915386,4.85 81.9915386,6.06 C81.9915386,7.27 81.2615386,8.2 79.6115386,8.2 L77.8815386,8.2 Z M88.8607694,9.88 L88.8607694,11 L83.8707694,11 L83.8707694,3.9 L88.8607694,3.9 L88.8607694,5.02 L85.0807694,5.02 L85.0807694,6.84 L88.6907694,6.84 L88.6907694,7.96 L85.0807694,7.96 L85.0807694,9.88 L88.8607694,9.88 Z M96.7000002,11 L95.2800002,11 L93.8400002,8.2 L92.2100002,8.2 L92.2100002,11 L91.0000002,11 L91.0000002,3.9 L94.1200002,3.9 C95.6900002,3.9 96.4600002,4.81 96.4600002,6.05 C96.4600002,6.99 96.0100002,7.75 95.0700002,8.05 L96.7000002,11 Z M95.2400002,6.05 C95.2400002,5.44 94.8800002,5.02 94.1300002,5.02 L92.2100002,5.02 L92.2100002,7.08 L94.1300002,7.08 C94.8800002,7.08 95.2400002,6.66 95.2400002,6.05 Z M100.779231,10.05 C101.749231,10.05 102.309231,9.7 102.309231,9.06 C102.309231,7.33 98.339231,8.69 98.339231,5.85 C98.339231,4.72 99.299231,3.75 100.879231,3.75 C102.549231,3.75 103.429231,4.77 103.459231,6.1 L102.269231,6.1 C102.259231,5.4 101.789231,4.84 100.879231,4.84 C100.049231,4.84 99.539231,5.19 99.539231,5.82 C99.539231,7.38 103.539231,6.17 103.539231,9.01 C103.539231,10.3 102.419231,11.14 100.719231,11.14 C98.829231,11.14 98.099231,9.94 98.059231,8.78 L99.259231,8.78 C99.309231,9.54 99.819231,10.05 100.779231,10.05 Z" id="for-developers" fill="#FF3D00"></path>
            </g>
        </g>
    </g>
</svg>