<?xml version="1.0" encoding="UTF-8"?>
<svg width="150px" height="36px" viewBox="0 0 150 36" version="1.1" xmlns="http://www.w3.org/2000/svg" xmlns:xlink="http://www.w3.org/1999/xlink">
    <!-- Generator: Sketch 49.3 (51167) - http://www.bohemiancoding.com/sketch -->
    <title>mobile-menu-proof</title>
    <desc>Created with Sketch.</desc>
    <defs>
        <linearGradient x1="25.2423602%" y1="100%" x2="82.3034462%" y2="0%" id="linearGradient-1">
            <stop stop-color="#4238DA" offset="0%"></stop>
            <stop stop-color="#24ABFB" offset="100%"></stop>
        </linearGradient>
        <linearGradient x1="18.3011569%" y1="0%" x2="91.030649%" y2="91.2980045%" id="linearGradient-2">
            <stop stop-color="#00DBFE" offset="0%"></stop>
            <stop stop-color="#0280D1" offset="100%"></stop>
        </linearGradient>
    </defs>
    <g id="Page-1" stroke="none" stroke-width="1" fill="none" fill-rule="evenodd">
        <g id="mobile-menu-proof" transform="translate(-1.000000, -3.000000)">
            <g id="logo-proof" transform="translate(0.000000, 6.000000)" fill-rule="nonzero">
                <polygon id="Shape" fill="url(#linearGradient-1)" points="28.3611556 0.974383342 39.4660357 0.974383342 23.7198245 30.1591216 12.6755864 30.1591216"></polygon>
                <polygon id="Shape" fill="url(#linearGradient-2)" points="12.9100815 9.88654332 1.34130903 9.88654332 11.8894043 30.0378418 18.0644531 18.9758301"></polygon>
            </g>
            <g id="Group-2" transform="translate(51.000000, 0.000000)">
                <path d="M5.33,27.808 L9.854,27.808 C11.908,27.808 12.844,26.768 12.844,25.156 C12.844,23.544 11.908,22.452 9.854,22.452 L5.33,22.452 L5.33,27.808 Z M5.33,30.72 L5.33,38 L2.184,38 L2.184,19.54 L9.828,19.54 C14.222,19.54 16.016,22.01 16.016,25.156 C16.016,28.302 14.118,30.72 9.828,30.72 L5.33,30.72 Z M25.87,24.402 L25.87,27.288 C25.87,27.288 25.506,27.236 25.168,27.236 C22.984,27.236 21.684,28.38 21.684,30.98 L21.684,38 L18.59,38 L18.59,24.506 L21.45,24.506 L21.45,26.378 C21.944,25.52 23.088,24.376 25.428,24.376 C25.558,24.376 25.87,24.402 25.87,24.402 Z M34.216,38.312 C29.926,38.312 27.222,35.062 27.222,31.266 C27.222,27.47 29.926,24.194 34.216,24.194 C38.532,24.194 41.236,27.47 41.236,31.266 C41.236,35.062 38.532,38.312 34.216,38.312 Z M30.316,31.266 C30.316,33.866 31.98,35.582 34.216,35.582 C36.478,35.582 38.142,33.866 38.142,31.266 C38.142,28.64 36.478,26.924 34.216,26.924 C31.98,26.924 30.316,28.64 30.316,31.266 Z M50.206,38.312 C45.916,38.312 43.212,35.062 43.212,31.266 C43.212,27.47 45.916,24.194 50.206,24.194 C54.522,24.194 57.226,27.47 57.226,31.266 C57.226,35.062 54.522,38.312 50.206,38.312 Z M46.306,31.266 C46.306,33.866 47.97,35.582 50.206,35.582 C52.468,35.582 54.132,33.866 54.132,31.266 C54.132,28.64 52.468,26.924 50.206,26.924 C47.97,26.924 46.306,28.64 46.306,31.266 Z M60.632,24.506 L60.632,23.076 C60.632,19.904 62.426,18.5 65,18.5 C65.598,18.5 66.04,18.578 66.04,18.578 L66.04,21.308 C66.04,21.308 65.884,21.256 65.468,21.256 C64.22,21.256 63.726,21.776 63.726,23.258 L63.726,24.506 L66.118,24.506 L66.118,26.976 L63.726,26.976 L63.726,38 L60.632,38 L60.632,26.976 L58.474,26.976 L58.474,24.506 L60.632,24.506 Z" id="Proof" fill="#010535"></path>
                <path d="M3.05,11 L1.84,11 L1.84,3.9 L6.48,3.9 L6.48,5.02 L3.05,5.02 L3.05,6.84 L6.31,6.84 L6.31,7.96 L3.05,7.96 L3.05,11 Z M9.22923078,7.45 C9.22923078,8.98 10.2292308,9.99 11.6192308,9.99 C13.0092308,9.99 14.0092308,8.98 14.0092308,7.45 C14.0092308,5.92 13.0092308,4.91 11.6192308,4.91 C10.2292308,4.91 9.22923078,5.92 9.22923078,7.45 Z M7.94923078,7.45 C7.94923078,5.34 9.45923078,3.75 11.6192308,3.75 C13.7792308,3.75 15.2892308,5.34 15.2892308,7.45 C15.2892308,9.56 13.7792308,11.15 11.6192308,11.15 C9.45923078,11.15 7.94923078,9.56 7.94923078,7.45 Z M23.0484616,11 L21.6284616,11 L20.1884616,8.2 L18.5584616,8.2 L18.5584616,11 L17.3484616,11 L17.3484616,3.9 L20.4684616,3.9 C22.0384616,3.9 22.8084616,4.81 22.8084616,6.05 C22.8084616,6.99 22.3584616,7.75 21.4184616,8.05 L23.0484616,11 Z M21.5884616,6.05 C21.5884616,5.44 21.2284616,5.02 20.4784616,5.02 L18.5584616,5.02 L18.5584616,7.08 L20.4784616,7.08 C21.2284616,7.08 21.5884616,6.66 21.5884616,6.05 Z M34.5661539,11 L31.5861539,11 L31.5861539,3.9 L34.4561539,3.9 C36.0861539,3.9 36.8061539,4.74 36.8061539,5.83 C36.8061539,6.58 36.4161539,7.15 35.7761539,7.41 C36.4661539,7.65 36.9261539,8.23 36.9261539,9.01 C36.9261539,10.25 36.1061539,11 34.5661539,11 Z M34.5561539,7.96 L32.7761539,7.96 L32.7761539,9.9 L34.5461539,9.9 C35.2961539,9.9 35.7061539,9.57 35.7061539,8.93 C35.7061539,8.32 35.2961539,7.96 34.5561539,7.96 Z M34.4661539,5 L32.7761539,5 L32.7761539,6.85 L34.4661539,6.85 C35.1461539,6.85 35.5861539,6.57 35.5861539,5.93 C35.5861539,5.37 35.2361539,5 34.4661539,5 Z M41.9153847,11.15 C40.2853847,11.15 38.9653847,10.16 38.9653847,8.08 L38.9653847,3.9 L40.1753847,3.9 L40.1753847,8.13 C40.1753847,9.26 40.7453847,10.03 41.9153847,10.03 C43.0853847,10.03 43.6553847,9.26 43.6553847,8.13 L43.6553847,3.9 L44.8653847,3.9 L44.8653847,8.08 C44.8653847,10.16 43.5353847,11.15 41.9153847,11.15 Z M49.5246155,10.05 C50.4946155,10.05 51.0546155,9.7 51.0546155,9.06 C51.0546155,7.33 47.0846155,8.69 47.0846155,5.85 C47.0846155,4.72 48.0446155,3.75 49.6246155,3.75 C51.2946155,3.75 52.1746155,4.77 52.2046155,6.1 L51.0146155,6.1 C51.0046155,5.4 50.5346155,4.84 49.6246155,4.84 C48.7946155,4.84 48.2846155,5.19 48.2846155,5.82 C48.2846155,7.38 52.2846155,6.17 52.2846155,9.01 C52.2846155,10.3 51.1646155,11.14 49.4646155,11.14 C47.5746155,11.14 46.8446155,9.94 46.8046155,8.78 L48.0046155,8.78 C48.0546155,9.54 48.5646155,10.05 49.5246155,10.05 Z M55.5838463,3.9 L55.5838463,11 L54.3738463,11 L54.3738463,3.9 L55.5838463,3.9 Z M59.223077,5.9 L59.223077,11 L58.033077,11 L58.033077,3.9 L59.263077,3.9 L62.713077,9.01 L62.713077,3.9 L63.903077,3.9 L63.903077,11 L62.663077,11 L59.223077,5.9 Z M71.3423078,9.88 L71.3423078,11 L66.3523078,11 L66.3523078,3.9 L71.3423078,3.9 L71.3423078,5.02 L67.5623078,5.02 L67.5623078,6.84 L71.1723078,6.84 L71.1723078,7.96 L67.5623078,7.96 L67.5623078,9.88 L71.3423078,9.88 Z M75.7615386,10.05 C76.7315386,10.05 77.2915386,9.7 77.2915386,9.06 C77.2915386,7.33 73.3215386,8.69 73.3215386,5.85 C73.3215386,4.72 74.2815386,3.75 75.8615386,3.75 C77.5315386,3.75 78.4115386,4.77 78.4415386,6.1 L77.2515386,6.1 C77.2415386,5.4 76.7715386,4.84 75.8615386,4.84 C75.0315386,4.84 74.5215386,5.19 74.5215386,5.82 C74.5215386,7.38 78.5215386,6.17 78.5215386,9.01 C78.5215386,10.3 77.4015386,11.14 75.7015386,11.14 C73.8115386,11.14 73.0815386,9.94 73.0415386,8.78 L74.2415386,8.78 C74.2915386,9.54 74.8015386,10.05 75.7615386,10.05 Z M82.6407694,10.05 C83.6107694,10.05 84.1707694,9.7 84.1707694,9.06 C84.1707694,7.33 80.2007694,8.69 80.2007694,5.85 C80.2007694,4.72 81.1607694,3.75 82.7407694,3.75 C84.4107694,3.75 85.2907694,4.77 85.3207694,6.1 L84.1307694,6.1 C84.1207694,5.4 83.6507694,4.84 82.7407694,4.84 C81.9107694,4.84 81.4007694,5.19 81.4007694,5.82 C81.4007694,7.38 85.4007694,6.17 85.4007694,9.01 C85.4007694,10.3 84.2807694,11.14 82.5807694,11.14 C80.6907694,11.14 79.9607694,9.94 79.9207694,8.78 L81.1207694,8.78 C81.1707694,9.54 81.6807694,10.05 82.6407694,10.05 Z M92.4800002,9.88 L92.4800002,11 L87.4900002,11 L87.4900002,3.9 L92.4800002,3.9 L92.4800002,5.02 L88.7000002,5.02 L88.7000002,6.84 L92.3100002,6.84 L92.3100002,7.96 L88.7000002,7.96 L88.7000002,9.88 L92.4800002,9.88 Z M96.899231,10.05 C97.869231,10.05 98.429231,9.7 98.429231,9.06 C98.429231,7.33 94.459231,8.69 94.459231,5.85 C94.459231,4.72 95.419231,3.75 96.999231,3.75 C98.669231,3.75 99.549231,4.77 99.579231,6.1 L98.389231,6.1 C98.379231,5.4 97.909231,4.84 96.999231,4.84 C96.169231,4.84 95.659231,5.19 95.659231,5.82 C95.659231,7.38 99.659231,6.17 99.659231,9.01 C99.659231,10.3 98.539231,11.14 96.839231,11.14 C94.949231,11.14 94.219231,9.94 94.179231,8.78 L95.379231,8.78 C95.429231,9.54 95.939231,10.05 96.899231,10.05 Z" id="for-businesses" fill="#399CE2"></path>
            </g>
        </g>
    </g>
</svg>