<svg xmlns="http://www.w3.org/2000/svg" width="216" height="38" viewBox="0 0 180 30">
  <g fill="none" fill-rule="evenodd">
    <path
      d="M49.86 9.759h-4.294V20.8H43.99V9.76l-4.294.072V8.43l10.166-.072V9.76m5.993-1.403h1.578V20.8h-1.578zM73.068 19.4v1.4h-8.449V8.357h8.291v1.402h-6.713v4.032h5.837v1.314h-5.837v4.294h6.871m6.362 1.402V8.357h5.329c.55 0 1.055.113 1.516.342a3.79 3.79 0 0 1 1.192.911c.333.38.593.806.78 1.28a3.9 3.9 0 0 1 .28 1.445c0 .433-.06.85-.183 1.254a3.879 3.879 0 0 1-.526 1.095 3.548 3.548 0 0 1-.824.842 3.227 3.227 0 0 1-1.078.508l3.015 4.767h-1.788l-2.84-4.47h-3.295v4.47h-1.577zm1.578-5.871h3.769c.327 0 .622-.07.885-.21.263-.14.488-.33.675-.57.186-.24.333-.517.438-.833.105-.315.158-.642.158-.982 0-.35-.062-.68-.184-.99a2.927 2.927 0 0 0-.49-.823 2.234 2.234 0 0 0-.72-.562 1.956 1.956 0 0 0-.868-.201h-3.663v5.17zm14.145-6.573h1.578V20.8h-1.578zm12.761 12.533c-.877 0-1.674-.178-2.393-.535a5.897 5.897 0 0 1-1.849-1.42 6.446 6.446 0 0 1-1.191-2.024 6.666 6.666 0 0 1-.422-2.332c0-.83.15-1.624.447-2.383a6.58 6.58 0 0 1 1.236-2.017 5.941 5.941 0 0 1 1.867-1.393 5.337 5.337 0 0 1 2.34-.516c.876 0 1.67.183 2.384.551.713.368 1.326.85 1.84 1.446a6.587 6.587 0 0 1 1.192 2.025 6.56 6.56 0 0 1-.027 4.689 6.541 6.541 0 0 1-1.226 2.007 5.898 5.898 0 0 1-1.858 1.384 5.336 5.336 0 0 1-2.34.517zm-4.26-6.31c0 .63.102 1.24.307 1.83.205.592.494 1.114.868 1.57a4.19 4.19 0 0 0 1.35 1.086c.525.269 1.11.404 1.752.404.667 0 1.262-.143 1.788-.43a4.34 4.34 0 0 0 1.34-1.122c.37-.46.65-.984.842-1.569a5.57 5.57 0 0 0-.017-3.602 4.879 4.879 0 0 0-.876-1.56c-.38-.45-.83-.809-1.35-1.077a3.699 3.699 0 0 0-1.727-.403c-.666 0-1.262.14-1.787.42-.526.28-.973.649-1.341 1.104a5.036 5.036 0 0 0-.85 1.56 5.514 5.514 0 0 0-.298 1.788zm17.055-3.279v9.5h-1.578V8.357h1.228l7.712 9.693V8.374h1.577v12.427h-1.332l-7.607-9.5"
      fill="#424242"
    ></path>
    <path
      d="M21.223 15.647a91.151 91.151 0 0 0-12.84 0c-.14-2.18-.211-3.269-.353-5.447a96.255 96.255 0 0 1 13.545 0l-.352 5.447m-3.503 8.869c-2.333-.111-3.502-.111-5.835 0l-.157-4.853c2.459-.118 3.69-.117 6.15 0l-.158 4.853M.019 1.432c.385 2.63.576 3.946.956 6.577a90.43 90.43 0 0 1 1.396-2.397c8.505-1.222 16.658-1.205 25.158.05a98.34 98.34 0 0 1 1.101 2.347c.38-2.631.572-3.947.956-6.577C19.59-.244 10.016-.244.02 1.432"
      fill="#F94081"
    ></path>
  </g>
</svg>
