<svg xmlns="http://www.w3.org/2000/svg" xmlns:xlink="http://www.w3.org/1999/xlink" width="430" height="351" viewBox="0 0 430 351">
    <defs>
        <circle id="b" cx="212" cy="168" r="142"/>
        <filter id="a" width="131%" height="131%" x="-15.5%" y="-9.9%" filterUnits="objectBoundingBox">
            <feOffset dy="16" in="SourceAlpha" result="shadowOffsetOuter1"/>
            <feGaussianBlur in="shadowOffsetOuter1" result="shadowBlurOuter1" stdDeviation="12"/>
            <feColorMatrix in="shadowBlurOuter1" values="0 0 0 0 0.900332565 0 0 0 0 0.900332565 0 0 0 0 0.947199192 0 0 0 0.633633379 0"/>
        </filter>
        <linearGradient id="c" x1="85.766%" x2="3.399%" y1="0%" y2="0%">
            <stop offset="0%" stop-color="#A576FF" stop-opacity=".048"/>
            <stop offset="100%" stop-color="#BC68DF"/>
        </linearGradient>
        <linearGradient id="d" x1="0%" x2="91.331%" y1="0%" y2="0%">
            <stop offset="0%" stop-color="#A576FF" stop-opacity="0"/>
            <stop offset="100%" stop-color="#FF4081"/>
        </linearGradient>
        <linearGradient id="e" x1="100%" x2="0%" y1="100%" y2="0%">
            <stop offset="0%" stop-color="#A576FF"/>
            <stop offset="100%" stop-color="#FF4081"/>
        </linearGradient>
        <linearGradient id="f" x1="8.075%" y1="53.462%" y2="53.462%">
            <stop offset="0%" stop-color="#7474BF"/>
            <stop offset="20%" stop-color="#6E7BCB"/>
            <stop offset="40%" stop-color="#6782D7"/>
            <stop offset="60%" stop-color="#5F88E3"/>
            <stop offset="80%" stop-color="#538FF0"/>
            <stop offset="100%" stop-color="#4396FC"/>
        </linearGradient>
        <linearGradient id="g" x1="50%" x2="50%" y1="0%" y2="100%">
            <stop offset="0%" stop-color="#7474BF"/>
            <stop offset="100%" stop-color="#348AC7"/>
        </linearGradient>
        <circle id="i" cx="352" cy="170" r="19"/>
        <filter id="h" width="111.3%" height="111.3%" x="-5.7%" y="-5.7%" filterUnits="objectBoundingBox">
            <feGaussianBlur in="SourceAlpha" result="shadowBlurInner1" stdDeviation="1.5"/>
            <feOffset in="shadowBlurInner1" result="shadowOffsetInner1"/>
            <feComposite in="shadowOffsetInner1" in2="SourceAlpha" k2="-1" k3="1" operator="arithmetic" result="shadowInnerInner1"/>
            <feColorMatrix in="shadowInnerInner1" values="0 0 0 0 0.937254902 0 0 0 0 0.290196078 0 0 0 0 0.596078431 0 0 0 1 0"/>
        </filter>
        <linearGradient id="j" x1="92.127%" x2="0%" y1="0%" y2="0%">
            <stop offset="0%" stop-color="#A576FF" stop-opacity=".048"/>
            <stop offset="100%" stop-color="#FF4081"/>
        </linearGradient>
    </defs>
    <g fill="none" fill-rule="evenodd" transform="translate(0 1)">
        <use fill="#000" filter="url(#a)" xlink:href="#b"/>
        <use fill="#FFF" xlink:href="#b"/>
        <g fill="#FF4081">
            <path d="M248.023 186c-24.295-1.595-47.75-1.595-72.044-.006-.79-11.495-1.186-17.242-1.979-28.735 25.628-1.68 50.374-1.677 76 0L248.023 186M228.157 230.998c-12.52-.584-18.794-.582-31.314.002-.335-10.216-.506-15.324-.843-25.538 13.195-.617 19.805-.615 33 .002-.337 10.212-.504 15.318-.843 25.534M131 112.419A14413.9 14413.9 0 0 1 136.268 146a453.074 453.074 0 0 1 7.7-12.242c46.886-6.235 91.829-6.15 138.688.253A486.07 486.07 0 0 1 288.73 146c2.093-13.436 3.15-20.151 5.27-33.581-55.107-8.559-107.893-8.559-163 0"/>
        </g>
        <path stroke="url(#c)" d="M365 170h39.853v-23H430"/>
        <path stroke="url(#d)" d="M0 156h44.758v-27H73"/>
        <circle cx="76" cy="129" r="6" fill="url(#e)"/>
        <circle cx="58.5" cy="49.5" r="9.5" fill="url(#e)" stroke="url(#e)" opacity=".383"/>
        <path fill="#FFF" fill-rule="nonzero" d="M56.895 54.152L53 50.257l.725-.725 3.17 3.17L63.596 46l.725.725z"/>
        <circle cx="371.5" cy="292.5" r="9.5" fill="url(#f)" stroke="url(#f)" stroke-width=".8" opacity=".627"/>
        <path fill="#FFF" fill-rule="nonzero" d="M369.784 297L366 292.7l.705-.8 3.08 3.499 6.51-7.399.705.8z"/>
        <circle cx="38.5" cy="231.5" r="10.5" stroke="url(#g)" opacity=".477"/>
        <circle cx="352" cy="170" r="13" fill="url(#e)"/>
        <use fill="#000" filter="url(#h)" xlink:href="#i"/>
        <use stroke="url(#e)" stroke-width="1.3" xlink:href="#i"/>
        <circle cx="392.5" cy="68.5" r="16.5" stroke="url(#j)" stroke-width="1.3" opacity=".595"/>
        <path fill="#FFF" fill-rule="nonzero" stroke="#FFF" stroke-width=".5" d="M349.504 176L344 170.267l1.025-1.068 4.48 4.666 9.47-9.865 1.025 1.067z"/>
        <circle cx="69.5" cy="303.5" r="18.5" stroke="url(#j)"/>
        <path fill="#FF4081" fill-rule="nonzero" d="M65.88 311.152l-6.88-6.88 1.281-1.282 5.6 5.6 11.838-11.839L79 298.032z" opacity=".44"/>
        <path fill="#FF4081" fill-rule="nonzero" d="M389.848 75L384 69.267l1.089-1.068 4.76 4.666L399.91 63 401 64.067z" opacity=".595"/>
        <path fill="#A5A9EC" fill-rule="nonzero" d="M37.128 236.152L33 232.023l.769-.768 3.36 3.36 7.102-7.104.769.769z"/>
        <circle cx="302.5" cy="10.5" r="10.5" stroke="url(#g)" opacity=".597"/>
        <path fill="#9EA3E5" fill-rule="nonzero" d="M301.128 15.64L297 11.512l.769-.768 3.36 3.36L308.23 7l.769.769z"/>
    </g>
</svg>
