<svg xmlns="http://www.w3.org/2000/svg" xmlns:xlink="http://www.w3.org/1999/xlink" width="877" height="443" viewBox="0 0 877 443">
    <defs>
        <path id="hero-chainpoint-a" d="M0 0h877v443H0z"/>
        <linearGradient id="hero-chainpoint-b" x1="25.868%" x2="76.548%" y1="6.908%" y2="46.993%">
            <stop offset="0%" stop-color="#DBECFC"/>
            <stop offset="100%" stop-color="#64A5ED"/>
        </linearGradient>
        <linearGradient id="hero-chainpoint-d" x1="14.821%" x2="82.935%" y1="29.807%" y2="89.69%">
            <stop offset="0%" stop-color="#0019FF"/>
            <stop offset="100%" stop-color="#FF4081"/>
        </linearGradient>
        <path id="hero-chainpoint-e" d="M71.438 0c39.261 0 71.088 31.834 71.088 71.103 0 39.269-31.827 71.103-71.088 71.103-39.261 0-71.089-31.834-71.089-71.103C.35 31.834 32.177 0 71.438 0z"/>
        <filter id="hero-chainpoint-f" width="108.4%" height="108.4%" x="-4.2%" y="-4.2%" filterUnits="objectBoundingBox">
            <feGaussianBlur in="SourceAlpha" result="shadowBlurInner1" stdDeviation="6"/>
            <feOffset in="shadowBlurInner1" result="shadowOffsetInner1"/>
            <feComposite in="shadowOffsetInner1" in2="SourceAlpha" k2="-1" k3="1" operator="arithmetic" result="shadowInnerInner1"/>
            <feColorMatrix in="shadowInnerInner1" values="0 0 0 0 0.373587376 0 0 0 0 0.171819483 0 0 0 0 0.940821641 0 0 0 1 0"/>
        </filter>
        <path id="hero-chainpoint-g" d="M71.118 21.185c27.563 0 49.908 22.35 49.908 49.918 0 27.569-22.345 49.917-49.908 49.917-27.563 0-49.907-22.348-49.907-49.917 0-27.569 22.344-49.918 49.907-49.918z"/>
        <filter id="hero-chainpoint-h" width="112%" height="112%" x="-6%" y="-6%" filterUnits="objectBoundingBox">
            <feGaussianBlur in="SourceAlpha" result="shadowBlurInner1" stdDeviation="6"/>
            <feOffset in="shadowBlurInner1" result="shadowOffsetInner1"/>
            <feComposite in="shadowOffsetInner1" in2="SourceAlpha" k2="-1" k3="1" operator="arithmetic" result="shadowInnerInner1"/>
            <feColorMatrix in="shadowInnerInner1" values="0 0 0 0 0.373587376 0 0 0 0 0.171819483 0 0 0 0 0.940821641 0 0 0 1 0"/>
        </filter>
        <linearGradient id="hero-chainpoint-i" x1="100.412%" x2="0%" y1="99.428%" y2="0%">
            <stop offset="0%" stop-color="#7600FB"/>
            <stop offset="100%" stop-color="#7C00DC"/>
        </linearGradient>
        <linearGradient id="hero-chainpoint-j" x1="0%" y1="0%" y2="93.553%">
            <stop offset="0%" stop-color="#7800F5"/>
            <stop offset="100%" stop-color="#7800F5" stop-opacity="0"/>
        </linearGradient>
        <linearGradient id="hero-chainpoint-k" x1="50%" x2="50%" y1="0%" y2="100%">
            <stop offset="0%" stop-color="#7144F0"/>
            <stop offset="100%" stop-color="#511BE9"/>
        </linearGradient>
        <linearGradient id="hero-chainpoint-l" x1="3.224%" x2="96.776%" y1="96.776%" y2="-3.224%">
            <stop offset="0%" stop-color="#7800F5"/>
            <stop offset="100%" stop-color="#7800F5" stop-opacity="0"/>
        </linearGradient>
    </defs>
    <g fill="none" fill-rule="evenodd">
        <mask id="c" fill="#fff">
            <use xlink:href="#hero-chainpoint-a"/>
        </mask>
        <circle cx="435" cy="557" r="434" fill="url(#hero-chainpoint-b)" mask="url(#hero-chainpoint-c)" opacity=".378"/>
        <g mask="url(#hero-chainpoint-c)">
            <path fill="url(#hero-chainpoint-d)" fill-rule="nonzero" d="M868.253 420.26l3.559 21.94h-.906l-2.836-17.556-.654-4.037-.03.013-2.088-.865-.865-2.088.865-2.089.38-.157-46.127-83.974L867.969 442.2H867.002l-50.004-114.383L845.313 442.2H844.408l-28.833-116.473-.147.061-3.376 29.004 1.334.553.865 2.088-.865 2.088-.73.303 30.401 82.376H842.11l-30.274-82.036-.44.183-9.886 81.853H800.626l9.91-82.13-1.32-.549-.465-1.123-58.94 12.126.063.154-.864 2.089-.456.189 34.501 69.244H782.068l-34.333-68.905-.63.26L740.9 442.2H740.01l6.228-68.852-.889-.37-65.11 69.222h-1.177l65.634-69.781-.645-1.558-104.85-9.541-.58 1.4-1.212.503 12.949 78.977h-.896l-12.892-78.629-.037.015-1.643-.683-79.208 79.297h-1.254l79.839-79.924-.68-1.643.013-.034-102.85-16.902-.503 1.214-1.409.584 8.512 96.705H536.459l-8.489-96.503-1.207-.5L447.31 442.2H446.209l79.805-97.432-.806-1.945.055-.133-115.719-23.335-.464 1.121-1.102.457L433.366 442.2H432.466l-25.317-120.922-.155.064-.909-.377-38.393 70.426.369.153.864 2.089-.614 1.484 52.952 47.083H419.931l-52.145-46.366-.92.382 7.875 45.984H373.843l-7.815-45.637-.053.022-1.267-.525-34.603 46.14h-1.107l34.879-46.508-.577-1.396-85.27 6.99-.778 1.879-1.843.763-2.684 38.272h-.887l2.696-38.433-.766-.317-32.22 38.75h-1.151l32.608-39.217-.614-1.484-117.918-.87-.672 1.626-1.313.544 4.905 39.401H156.502l-4.87-39.115-.948-.393-24.18 39.508h-1.028l24.387-39.848-.234-.097-.081-.197L87.573 442.2h-1.507l63.163-40.912-.464-1.122.758-1.831-56.031-63.724-1.477.611-.475-.196L54.92 442.2H53.986L90.65 334.9 14.173 442.2h-1.018l76.842-107.813-.068-.029-.446-1.076-41.365 9.335.085.206-.864 2.088-2.086.865-.549-.228L8.491 442.2H7.547l36.34-96.99-.41-.17-12.549 11.435.628 1.517-.864 2.088-2.086.866-.302-.126L6.655 442.2h-.9l18.259-68.637L1.718 442.2h-.93l26.563-81.775-.83-.345-.865-2.088.864-2.089 2.086-.864 1.102.457 54.399-83.267-.152-.063-.864-2.088.864-2.088 2.086-.865 1.644.681 54.355-54.413-.68-1.646.863-2.088 2.086-.866 2.086.866.063.151 83.177-54.457-.457-1.103.864-2.088 2.087-.865 2.085.865.344.831 123.507-40.205-.18-.436.863-2.088 2.086-.866 2.086.866.588 1.422 69.279-5.74.78-1.881 2.081-.865 2.088.865.865 2.088-.012.029 31.077 5.049.365-.883 2.088-.865 2.083.865.718 1.736 102.054 16.579.505-1.22 2.082-.864 2.088.865.864 2.088-.328.791 20.491 10.033.897-.371 2.082.865.501 1.21 79.648 38.996.196-.477 2.088-.864 2.087.864.865 2.089-.596 1.438 43.624 37.45 1.859-.771 2.087.865.865 2.087-.738 1.784 74.613 81.192 1.553-.643 2.088.865.864 2.088-.864 2.088-.477.198 50.679 103.731.789-.326 2.088.864.864 2.089-.864 2.088-1.221.506zm-54.177-108.38l-1.857-.769-.864-2.088.682-1.647-43.17-43.215 45.107 56.325.71-.295-.608-8.31zm-80.232-86.055l-.864-2.088.18-.433-5.601-1.748 8.259 8.268-.177-3.252-1.797-.747zm-258.277-87.381l108.466 25.071.435-1.05 2.082-.866 1.333.553 13.561-17.224-.685-1.656-125.192-4.828zm-1.365-23.92l-1.778.739-.948 19.841 1.513.628.726 1.754 125.213 4.83-124.292-28.84-.434 1.048zm-4.17 0l-.575-1.387-103.121 9.934 101.95 13.946.533-1.285 1.777-.736.948-19.845-1.513-.627zm-104.901 9.274l-.531 1.284-2.086.865-1.104-.458-31.303 48.43.18.074.4.965 137.391-36.836-.106-.256-102.841-14.068zm-217.945 88.126l-.79 1.911-2.087.865-1.485-.615-36.49 41.296 51.617-43.696-.302-.73-10.463.969zm-43.103 49.797l-2.046.848-9.219 67.08.146.061 65.615-117.212-.148-.061-54.071 45.776.587 1.42-.864 2.088zm47.632 135.492l.59.245 37.405-95.273-.683-.284-.346-.836-93.903 30.755.186.45-.757 1.832 56.031 63.724 1.477-.613zm121.365 1.775l2.051-.85 17.344-123.93-.968-.4-137.469 124.846.452 1.09 117.917.869.673-1.625zm4.172 0l.085.204 127.143-79.75-.436-1.054.263-.635-108.665-44.721-.269.649-2.051.85-17.344 123.929 1.274.528zM404.908 316.3l1.68-.697.989-74.235-1.607-.666-.38-.919-109.496 31.463.143.346-.262.635 108.665 44.72.268-.647zm4.172 0l.166.4 104.836-55.737-.366-.883.05-.122L410.61 239.57l-.468 1.132-1.68.697-.988 74.234 1.606.667zm119.118 23.585l1.109.46 65.811-99.228-.161-.067-.406-.98-75.055 19.72.12.29-.865 2.088-1.278.53 10.725 77.187zm218.05 28.12l-7.467-85.422-1.892-.784-.538-1.3-45.687 6.02-.837 2.032-.062.026 55.968 79.642.514-.213zm63.507-12.884l1.441-.598 3.376-29-1.334-.555-.865-2.088.39-.943-71.522-40.441 68.514 73.625zM599.636 239.823l85.846 44.962.17-.41 1.001-.415-20.217-79.162-.278.115-2.087-.864-.161-.392-64.286 34.413.367.892-.355.861zm68.078-35.554l-.47.195 20.218 79.16.278-.115 2.087.866.536 1.301 45.684-6.02.695-1.678-69.028-73.709zM744.84 368.59l.058-.024-55.968-79.643-1.19.493-1.19-.493-48.036 69.577.107.045.789 1.906 104.85 9.541.58-1.402zm-108.307-10.91l1.19.493 48.035-69.578-.106-.044-.864-2.088.356-.86-85.844-44.961-.168.408-.84.347 37.804 116.464.437-.182zm27.045-154.828l-.367-.89.309-.751-74.667-35.09-.215.52-1.271.527 9.705 68.852 2.06.853.162.395 64.284-34.416zm-190.154-63.994l-.435 1.051-1.831.76-3.28 49.392 1.463.607.431 1.042 113.924-26.931-.093-.227.085-.206-110.264-25.488zm-4.605 1.051l-.4-.966-137.392 36.838.084.204 133.509 16.01.546-1.327 1.836-.761 3.28-49.392-1.463-.606zm-196.1 8.463l-2.086.865-1.393-.577-48.76 59.389.297.72 104.639-32.29-.165-.398.356-.86-52.709-27.283-.179.434zm-109.634 62.322l-.686 1.658-2.086.866-.949-.394-65.54 117.078 122.22-118.317-.474-1.143-52.485.252zm351.496 47.297l.028-.011-46.088-62.796-1.268.525-2.041-.845-54.757 42.417.551 1.333-.05.122 103.156 20.387.469-1.132zm80.376-21.118l1.275-.528-9.71-68.85-2.054-.853-.432-1.044-113.924 26.933.093.225-.21.506 124.645 44.375.317-.764zm-130.103-42.785l-.508-1.235-133.51-16.01-.231.56 75.454 59.086 1.997-.828 2.042.846 54.756-42.419zm-59.201 43.205l-75.455-59.086-1.997.828-.541-.225-33.04 90.382.753.312.38.919 109.496-31.464-.143-.345.547-1.32zm-185.236-25.22l-2.085.866-.394-.163-25.628 84.58.592.246 132.972-120.016-.119-.287-104.638 32.29.164.397-.864 2.088zm70.784 57.43l2.086-.864.542.224 33.04-90.381-.457-.19L193.44 298.309l.15.363 96.88-26.759-.133-.32.864-2.088zm-102.174 28.222l2.086-.865.393.163 25.629-84.58-.494-.205L94.303 330.671l.143.346 93.902-30.755-.186-.45.865-2.087zm327.637-40.599l2.087.865.405.98 75.056-19.719-.12-.29.209-.506-124.644-44.376-.316.764-.032.013 46.087 62.796 1.268-.527zm-363.17 140.825l137.47-124.846-.155-.371-96.879 26.758.133.32-.864 2.09-2.086.864-.592-.245-37.404 95.274.377.156zm9.58-188.143l52.485-.252.687-1.66 2.086-.864 1.392.578 48.76-59.39-.06-.143-105.561 61.22.211.51zm110.153-62.664l52.709 27.283.18-.434 2.085-.864 1.105.458 31.301-48.43-.18-.075-.412-.998-86.541 21.937.108.263-.355.86zm332.073-1.97l-1.727.717-1.334-.553-13.56 17.225.823 1.99-.31.75 74.658 35.083-58.55-55.212zm59.13 54.55l1.728-.716 2.087.864.865 2.09-.18.433 55.563 17.343-6.303-6.31-111.246-67.913 57.485 54.208zm4.184 3.434l-.223.54 69.03 73.705.963-.4-2.494-45.856-10.147-10.158-57.129-17.83zm67.906 23.287l.235 4.316 21.34 21.363-20.816-25.994-.76.315zm.306 5.64l2.437 44.791 1.796.747.864 2.088-.39.943 71.568 40.467.084-.202-50.038-62.485-26.32-26.35zm71.59 125.502l-.064-.154.72-1.742-68.552-73.668-.868.36 7.466 85.423 1.892.784.465 1.123 58.94-12.126zm-174.468 2.172l.503-1.214.834-.347-37.8-116.466-.44.183-1.152-.477-65.81 99.228.164.068.865 2.089-.014.034 102.85 16.902zm-108.34-17.903l.465-1.122 1.278-.53-10.725-77.187-2.045-.85-.166-.4-104.837 55.738.366.883-.055.132 115.72 23.336zm-120.33-21.227l-.37-.153-.084-.204-127.145 79.75.162.39 85.271-6.99.777-1.878 2.086-.865.909.377 38.393-70.427zM89.148 332.476l-.085-.206.865-2.088 2.046-.849 9.218-67.08-.35-.146-53.605 78.586.1.041.446 1.077 41.365-9.335zm-58.27 22.846L42.93 344.34l-.627-1.517.864-2.089 2.086-.865.963.4 33.312-59.412-48.649 74.465zm19.474-20.758l49.658-72.801-.1-.042-.066-.16-11.313 7.406.46 1.111-.865 2.088-2.086.865-.963-.399-34.725 61.932zm38.996-67.171l10.158-6.65-.46-1.11.864-2.089 2.086-.865 1.486.617 31-35.086-45.134 45.183zm57.454-56.75l.17.414 10.463-.969.79-1.911 2.087-.866 2.002.83 61.106-47.661-76.618 50.164zm87.411-54.305l-2.085.865-2.003-.83-64.447 50.268 102.4-59.387-33.065 6.84.064.156-.864 2.088zm5.563-4.112l27.97-5.787-.064-.155.864-2.089 2.086-.864 2.086.864.303.733 69.59-26.178-102.835 33.476zm38.302-8.286l81.594-20.683-.11-.263.865-2.088 1.233-.512-.804-5.099-.023.01-2.086-.866-.303-.731-80.366 30.232zm85.62-31.381l-.779 1.88-1.233.512.805 5.099.022-.01 2.086.866.442 1.068 64.62-14.88-65.964 5.465zm74.534-5.519l-.497 1.202-2.088.864-2.082-.864-.443-1.07-64.024 14.743 99.72-9.606-30.586-5.269zm143.416 24.58l-2.088.865-2.082-.864-.865-2.09.009-.02-92.142-14.66 116.191 26.96-18.879-10.54-.144.35zm12.228 5.414l7.463 4.167.145-.35.1-.043-7.708-3.774zm12.544 6.142l-.219.528 32.516 15.285-32.297-15.813zm4.209 3.551l104.904 64.042-25.802-25.83-1.644.682-2.088-.865-.86-2.088.316-.766-74.826-35.175zm85.92 43.786l22.187 22.211 12.756 7.788-34.943-29.999zm24.844 24.871l4.915 4.921 6.436 2.008-11.351-6.929zm22.815 17.984l19.606 24.483 36.192 36.231-55.798-60.714zm70.887 78.281l-.147.061.608 8.315 1.85.766.865 2.089-.864 2.088-.376.155 42.058 76.575-43.994-90.049z"/>
            <path fill="#DCEAFA" d="M595.567 228.6c6.46 0 11.698 5.238 11.698 11.7 0 6.462-5.237 11.7-11.698 11.7-6.46 0-11.697-5.238-11.697-11.7 0-6.462 5.237-11.7 11.697-11.7z"/>
            <path stroke="#5F2CF0" stroke-width="1.2" d="M329.221 134.4c22.695 0 41.092 18.401 41.092 41.1 0 22.7-18.397 41.1-41.092 41.1-22.694 0-41.091-18.4-41.091-41.1 0-22.699 18.397-41.1 41.091-41.1z" opacity=".175"/>
            <path fill="#EEF7FF" stroke="#7800F5" stroke-width="1.8" d="M595.567 228c6.46 0 11.698 5.238 11.698 11.7 0 6.462-5.237 11.7-11.698 11.7-6.46 0-11.697-5.238-11.697-11.7 0-6.462 5.237-11.7 11.697-11.7z"/>
            <path fill="#0045D2" d="M329.521 166.8c4.97 0 8.998 4.03 8.998 9a8.999 8.999 0 1 1-17.996 0 9 9 0 0 1 8.998-9z"/>
            <path fill="#7800F5" d="M595.868 236.6a3 3 0 1 1 0 6 3 3 0 0 1 0-6z"/>
            <g opacity=".384" transform="translate(599)">
                <use fill="#FFF" fill-opacity="0" xlink:href="#hero-chainpoint-e"/>
                <use fill="#000" filter="url(#hero-chainpoint-f)" xlink:href="#hero-chainpoint-e"/>
            </g>
            <g opacity=".9" transform="translate(599)">
                <use fill="#FFF" fill-opacity="0" xlink:href="#hero-chainpoint-g"/>
                <use fill="#000" filter="url(#hero-chainpoint-h)" xlink:href="#hero-chainpoint-g"/>
            </g>
            <path fill="url(#hero-chainpoint-i)" fill-rule="nonzero" d="M71.176 37.074c18.282 0 33.102 14.823 33.102 33.109 0 18.285-14.82 33.108-33.102 33.108-18.282 0-33.102-14.823-33.102-33.108 0-18.286 14.82-33.109 33.102-33.109z" transform="translate(599)"/>
            <g fill="#FFF" fill-rule="nonzero">
                <path fill-opacity=".7" d="M653.287 64.814l10.421 17.117 6.728-4.047-7.958-13.07z"/>
                <path d="M677.031 56.26h9.192L672.9 81.93h-9.191z"/>
            </g>
            <g>
                <path fill="#EEF7FF" stroke="#5F2CF0" stroke-width="1.8" d="M329.521 154.2c11.927 0 21.596 9.67 21.596 21.6 0 11.93-9.669 21.6-21.596 21.6s-21.595-9.67-21.595-21.6c0-11.93 9.668-21.6 21.595-21.6z"/>
                <path stroke="#5F2CF0" stroke-width="1.2" d="M329.221 143.4c17.725 0 32.094 14.372 32.094 32.1 0 17.729-14.37 32.1-32.094 32.1-17.725 0-32.093-14.371-32.093-32.1 0-17.728 14.368-32.1 32.093-32.1z" opacity=".412"/>
                <path fill="#5F2CF0" d="M316 57a7 7 0 0 1 7 7.001A7 7 0 1 1 316 57z"/>
                <path stroke="url(#hero-chainpoint-j)" stroke-linecap="square" stroke-width="2" d="M19 7l13 111" transform="translate(297 57)"/>
                <path fill="url(#hero-chainpoint-k)" fill-rule="nonzero" d="M32.521 109.8c4.97 0 8.998 4.03 8.998 9a8.999 8.999 0 1 1-17.996 0 9 9 0 0 1 8.998-9z" transform="translate(297 57)"/>
            </g>
            <path stroke="url(#hero-chainpoint-l)" stroke-linecap="square" stroke-width="2" d="M596 239l62.5-138.5"/>
        </g>
    </g>
</svg>
