<svg xmlns="http://www.w3.org/2000/svg" xmlns:xlink="http://www.w3.org/1999/xlink" width="90" height="90" viewBox="0 0 90 90">
    <title>Chainpoint Node API</title>
    <defs>
        <linearGradient id="icon-chainpoint-api-a" x1="0%" x2="89.258%" y1="0%" y2="100%">
            <stop offset="0%" stop-color="#F3C082"/>
            <stop offset="100%" stop-color="#EF3900"/>
        </linearGradient>
        <linearGradient id="icon-chainpoint-api-c" x1="1.848%" x2="98.838%" y1="1.83%" y2="97.869%">
            <stop offset="0%" stop-color="#FF8B13"/>
            <stop offset="100%" stop-color="#982300"/>
        </linearGradient>
        <path id="icon-chainpoint-api-b" d="M41.179 18.457l29.012 16.514-16.75 28.604L24.43 47.061z"/>
        <linearGradient id="icon-chainpoint-api-d" x1="1.848%" x2="98.838%" y1="1.83%" y2="97.869%">
            <stop offset="0%" stop-color="#FF8B13"/>
            <stop offset="100%" stop-color="#DA3605"/>
        </linearGradient>
        <linearGradient id="icon-chainpoint-api-e" x1="100%" x2="18.922%" y1="0%" y2="81.078%">
            <stop offset="0%" stop-color="#B94406"/>
            <stop offset="100%" stop-color="#E44D09"/>
        </linearGradient>
        <linearGradient id="icon-chainpoint-api-f" x1="90.247%" x2="29.1%" y1="93.797%" y2="16.244%">
            <stop offset="0%" stop-color="#AC3804"/>
            <stop offset="100%" stop-color="#DD3F07"/>
        </linearGradient>
        <linearGradient id="icon-chainpoint-api-g" x1="72.606%" x2="10.935%" y1="80.674%" y2="2.881%">
            <stop offset="0%" stop-color="#FC8312"/>
            <stop offset="100%" stop-color="#E5710E"/>
        </linearGradient>
        <linearGradient id="icon-chainpoint-api-h" x1="5.686%" x2="81.728%" y1="79.843%" y2="17.363%">
            <stop offset="0%" stop-color="#DF6B0D"/>
            <stop offset="100%" stop-color="#F4720E"/>
        </linearGradient>
    </defs>
    <g fill="none" fill-rule="evenodd">
        <path fill="url(#icon-chainpoint-api-a)" fill-rule="nonzero" d="M87.48 29.673l-8.01-14.731L64.892 4.565 52.471.128l-18 .267-.18.09L18.18 8.024 6.3 20.003.092 35.263l-.091.09.179 18.811L5.038 65.79l3.78 5.59 9.72 10.028L35.46 88.86l19.442-.266 18.18-8.607 11.157-13.753 5.671-15.882-2.43-20.679zM50.85 52.567l-23.579-3.816 15.48-18.724 8.1 22.54zm-6.841-22.98l22.229 4.704-14.13 17.746-8.1-22.45zm8.82 24.755l19.53 5.324L56.79 73.152l-3.962-18.81zm2.7 19.344l-21.42-2.218 17.37-16.683 4.05 18.901zM53.1 53.011l14.042-17.656 5.67 23.16L53.1 53.012zm-8.908-24.755l12.15-15.437L66.15 32.87l-21.958-4.614zm-2.7 1.064l-15.3 18.543L19.17 29.32h22.32zM19.62 28.08L31.95 12.727l9.72 15.26-22.05.091zm30.87 25.819L32.942 70.67l-5.94-20.585 23.49 3.813zm4.5 21.028l-9.9 10.114L34.2 72.799l20.791 2.128zM72.36 61.531L66.6 79.454l-9-5.148L72.36 61.531zM68.4 35.178l14.308 7.81-8.729 14.64-5.579-22.45zM57.958 12.904l16.65 6.565L67.5 32.426l-9.542-19.522zM43.02 27.722L33.3 12.46H54.99l-11.97 15.26zM30.6 11.397l-18.18 7.189L24.12 7.14l6.48 4.256zm-4.95-4.88l16.2-3.903-9.809 8.072-6.392-4.17zm4.229 6.564l-11.7 14.641-7.38-7.098 19.08-7.543zm-5.038 35.05L6.12 41.919 17.999 29.94l6.842 18.19zm-.092 1.42L12.691 61.44 6.03 43.34l18.72 6.212zm.9.975l5.85 20.232-17.908-8.253 12.058-11.98zM43.2 84.955l-17.1-3.816 6.571-8.163L43.2 84.955zm13.321-9.67l8.73 4.88-18 4.613 9.27-9.493zm17.55-14.641l6.659 6.211L68.49 78.214l5.58-17.57zm.538-1.331l8.191-13.754-1.62 19.789-6.571-6.035zm-6.3-25.732l7.109-12.776 7.108 20.499-14.217-7.723zM57.779 11.307l6.75-5.234 9 11.445-15.75-6.211zm-23.938.267L44.46 2.79l10.168 8.783H33.841zm5.488-9.76L29.79 4.121l4.95-2.395 4.588.086zM20.79 8.377l-4.771 4.704 2.97-3.903 1.8-.8zM17.279 28.7L6.12 40.144l3.871-18.366 7.288 6.922zm-6.3 32.12L1.708 53.81l3.241-9.493 6.03 16.502zM2.79 56.293l8.82 6.565-2.253 6.391L2.79 56.293zm28.708 15.885L24.84 80.43 14.308 64.279l17.19 7.899zm10.35 13.93l-6.03 1.331-7.02-4.26 13.05 2.93zm20.97-3.902l-8.191 5.057-6.48-1.241 14.671-3.816zm14.4-10.295l-4.95 6.922-3.058.533 8.008-7.455zm7.02-27.33l4.23 5.767-5.762 12.69L84.24 44.58zm.18-2.042l2.159-8.873 1.62 14.11-3.779-5.237zm-.9-2.218l-6.48-18.725 8.91 8.607-2.43 10.118zM68.04 8.557l9.808 7.009-2.25 2.485-7.558-9.494zm-11.612 2.128L46.89 2.432l16.108 3.106-6.57 5.147zM9.09 19.825h-.72l3.15-3.195-2.43 3.196zm-4.5 20.676l-3.15-4.97 6.571-11.182L4.591 40.5zm-.362 1.861l-2.7 7.81-.18-12.246 2.88 4.436zm8.37 21.83L22.408 79.1l-12.15-8.34 2.342-6.568zM24.57 82.206l1.62.977-2.52-1.064.9.087zm20.52 4.523l2.88.534-5.67.087 2.79-.62zm22.139-5.677l.629-.09-1.98.977 1.35-.887zm15.929-15.619l.18-.444-.18.444zm.9-39.042l-7.559-7.275 2.25-2.486 5.309 9.76zm-27.9-23.514l-6.392-1.241 2.521-.177 3.87 1.418zM7.29 21.067l.991.09-3.42 5.858 2.429-5.948zm7.467 54.394l7.38 5.057-2.792-.354-4.588-4.703z"/>
        <g transform="rotate(-6 47.31 41.016)">
            <use fill="#FFF" xlink:href="#icon-chainpoint-api-b"/>
            <path stroke="url(#icon-chainpoint-api-c)" stroke-width="1.286" d="M41.413 19.33l-16.1 27.494 27.894 15.878 16.1-27.494L41.414 19.33z"/>
        </g>
        <path fill="#FFF" stroke="url(#icon-chainpoint-api-d)" stroke-width="5.143" d="M44.733 29.693l14.452 8.226-8.344 14.249-14.453-8.227z" transform="rotate(-6 47.787 40.93)"/>
        <path stroke="url(#icon-chainpoint-api-e)" stroke-linecap="square" stroke-width="1.286" d="M61.071 35.357l6.429-1.765"/>
        <path stroke="url(#icon-chainpoint-api-f)" stroke-linecap="square" stroke-width="1.286" d="M53.357 54.643l1.286 6.836"/>
        <path stroke="url(#icon-chainpoint-api-g)" stroke-linecap="square" stroke-width="1.286" d="M43.071 28.929l-3.857-8.014"/>
        <path stroke="url(#icon-chainpoint-api-h)" stroke-linecap="square" stroke-width="1.286" d="M34.071 45.643l-7.714 3.16"/>
    </g>
</svg>
