<svg xmlns="http://www.w3.org/2000/svg" width="36" height="36" viewBox="0 0 36 36">
    <g fill="none" fill-rule="evenodd">
        <rect width="36" height="36" fill="#EEEEF7" rx="5"/>
        <path fill="#9D9DC3" d="M19.009 27.625h-1.365v-2.331c-3.34-.168-4.851-2.352-4.914-4.83h2.52c.105 1.323.86 2.31 2.394 2.499v-4.431l-.903-.273c-2.373-.714-3.55-2.205-3.55-4.221 0-2.268 1.786-3.99 4.453-4.221V7.465h1.365v2.352c2.877.294 4.389 2.268 4.452 4.788H20.92c-.063-1.113-.651-2.121-1.911-2.415v4.116l.483.126c2.793.777 3.969 2.268 3.969 4.515 0 2.268-1.66 3.99-4.452 4.305v2.373zm-3.276-13.671c0 1.155.609 1.47 1.91 1.974v-3.801c-1.175.147-1.91.819-1.91 1.827zm5.145 7.014c0-.966-.483-1.617-1.87-2.058v4.011c1.135-.189 1.87-.861 1.87-1.953z"/>
    </g>
</svg>
