<svg xmlns="http://www.w3.org/2000/svg" width="87" height="70" viewBox="0 0 87 70">
    <defs>
        <linearGradient id="icon-chainpoint-usecases-a" x1="2.891%" y1="50%" y2="50%">
            <stop offset="0%" stop-color="#742BD8"/>
            <stop offset="100%" stop-color="#3F13B0" stop-opacity="0"/>
        </linearGradient>
        <linearGradient id="icon-chainpoint-usecases-b" x1="54.329%" x2="41.299%" y1="93.371%" y2="26.119%">
            <stop offset="0%" stop-color="#742BD8"/>
            <stop offset="100%" stop-color="#3F13B0" stop-opacity="0"/>
        </linearGradient>
    </defs>
    <g fill="none" fill-rule="evenodd" transform="translate(-13 -14)">
        <rect width="70" height="70" x="23" y="14" fill="#2A2458" rx="35"/>
        <rect width="70" height="70" x="30" y="14" fill="url(#icon-chainpoint-usecases-a)" rx="35"/>
        <rect width="70" height="70" x="13" y="14" fill="url(#icon-chainpoint-usecases-a)" rx="35" transform="matrix(-1 0 0 1 96 0)"/>
        <rect width="70" height="70" x="14" y="14" fill="url(#icon-chainpoint-usecases-b)" rx="35" transform="rotate(-122 49 49)"/>
        <path fill="#F9FDFF" fill-rule="nonzero" d="M80.445 45.263a11.174 11.174 0 0 0-4.088-4.873c-.9-.597-1.896-1.07-2.957-1.395a11.455 11.455 0 0 0-3.356-.5c-.795 0-1.569.089-2.307.256-1.39.31-2.654.887-3.796 1.612-1 .634-1.916 1.383-2.775 2.191-.857.81-1.66 1.685-2.432 2.584.648.777 1.274 1.563 1.887 2.332l.049.062c.307.385.615.773.927 1.16l.195-.233c.695-.83 1.389-1.61 2.08-2.3a17.607 17.607 0 0 1 1.552-1.389c.774-.608 1.537-1.07 2.29-1.376.38-.152.757-.27 1.14-.346.384-.08.777-.12 1.19-.12.942 0 1.826.186 2.634.523a6.782 6.782 0 0 1 2.984 2.411 6.52 6.52 0 0 1 1.158 3.715c0 .926-.19 1.793-.53 2.588a6.723 6.723 0 0 1-2.457 2.927c-.54.36-1.137.641-1.77.837-.635.194-1.308.3-2.015.3-.453 0-.882-.05-1.303-.143a6.88 6.88 0 0 1-1.645-.608 9.28 9.28 0 0 1-.55-.309 12.311 12.311 0 0 1-1.669-1.235c-.21-.183-.422-.372-.63-.573a29.111 29.111 0 0 1-1.9-2.01 65.43 65.43 0 0 1-1.596-1.92c-.32-.4-.644-.805-.969-1.214-.882-1.108-1.781-2.242-2.73-3.332a32.883 32.883 0 0 0-2.237-2.35 19.733 19.733 0 0 0-2.228-1.824 13.231 13.231 0 0 0-2.84-1.515 10.776 10.776 0 0 0-3.786-.698c-1.552 0-3.042.308-4.395.872a11.29 11.29 0 0 0-4.965 4.013 10.953 10.953 0 0 0-1.42 2.902 10.556 10.556 0 0 0-.518 3.293c0 1.524.316 2.986.888 4.314.86 1.99 2.289 3.68 4.088 4.874.9.597 1.896 1.07 2.957 1.396 1.061.324 2.192.498 3.356.498.795 0 1.569-.088 2.307-.253 1.391-.31 2.654-.888 3.798-1.613 1.001-.634 1.916-1.383 2.773-2.193.857-.81 1.66-1.685 2.432-2.583-.65-.782-1.28-1.57-1.895-2.344l-.04-.05a188.58 188.58 0 0 0-.927-1.161l-.196.233a36.358 36.358 0 0 1-2.082 2.3c-.518.517-1.036.984-1.552 1.39-.774.607-1.537 1.07-2.29 1.376-.38.154-.757.269-1.14.346a5.989 5.989 0 0 1-1.188.119 6.822 6.822 0 0 1-2.636-.522 6.763 6.763 0 0 1-2.981-2.412 6.52 6.52 0 0 1-1.155-3.715c0-.925.188-1.793.529-2.588a6.777 6.777 0 0 1 4.227-3.764 6.873 6.873 0 0 1 2.014-.3c.453 0 .882.051 1.304.144.736.165 1.458.469 2.194.916.552.335 1.11.749 1.67 1.235.84.727 1.684 1.61 2.53 2.586.848.976 1.696 2.044 2.564 3.134.882 1.108 1.782 2.242 2.73 3.332a33.39 33.39 0 0 0 2.238 2.352 20.069 20.069 0 0 0 1.858 1.561c.978.719 2.041 1.338 3.21 1.78.074.027.146.055.22.08 1.108.391 2.308.616 3.565.616 1.552 0 3.042-.308 4.395-.872a11.29 11.29 0 0 0 4.965-4.013 10.96 10.96 0 0 0 1.936-6.2c0-1.523-.314-2.988-.888-4.314z"/>
    </g>
</svg>
